<svg width="892" height="426" viewBox="0 0 892 426" fill="none" xmlns="http://www.w3.org/2000/svg">
<path d="M1.6 353.4C8.8 317.933 15.7333 283.267 22.4 249.4C24.8 235 27.4667 220.067 30.4 204.6C33.3333 188.867 36 173.4 38.4 158.2C41.0667 142.733 43.4667 127.933 45.6 113.8C48 99.4 49.8667 86.3333 51.2 74.6C66.4 69.8 82.8 66.3333 100.4 64.2C118 61.8 135.467 60.6 152.8 60.6C163.2 60.6 171.733 61.8 178.4 64.2C185.333 66.6 190.667 70.0666 194.4 74.6C198.4 78.8667 201.2 83.9333 202.8 89.8C204.4 95.6666 205.2 102.2 205.2 109.4C205.2 120.067 203.333 130.6 199.6 141C195.867 151.133 190.8 160.867 184.4 170.2C178.267 179.267 171.067 187.667 162.8 195.4C154.8 202.867 146.133 209 136.8 213.8C141.6 224.467 146.667 236.2 152 249C157.6 261.533 162.8 273.533 167.6 285C172.933 298.333 178.4 311.667 184 325L122 346.6C116.667 328.2 111.867 310.867 107.6 294.6C105.733 287.933 103.867 281.133 102 274.2C100.133 267 98.4 260.333 96.8 254.2C95.2 247.8 93.8667 242.2 92.8 237.4C91.7333 232.6 91.0667 228.867 90.8 226.2L85.6 227.8C84 236.333 82 246.733 79.6 259C77.4667 271.267 75.4667 283.133 73.6 294.6C71.2 308.2 68.8 322.2 66.4 336.6L1.6 353.4ZM95.6 179.8C100.667 179.267 106.8 177.133 114 173.4C121.467 169.667 128.533 165.267 135.2 160.2C141.867 154.867 147.6 149.4 152.4 143.8C157.2 138.2 159.6 133.267 159.6 129C159.6 126.067 158.667 123.8 156.8 122.2C154.933 120.333 152.267 119 148.8 118.2C145.6 117.133 142 116.467 138 116.2C134 115.933 129.867 115.8 125.6 115.8C122.667 115.8 119.6 115.933 116.4 116.2C113.467 116.2 110.8 116.2 108.4 116.2L95.6 179.8ZM381.334 148.6C381.334 162.467 379.334 177.267 375.334 193C371.334 208.467 365.734 223.933 358.534 239.4C351.334 254.6 342.401 269.267 331.734 283.4C321.334 297.267 309.468 309.533 296.134 320.2C282.801 330.6 268.134 339 252.134 345.4C236.401 351.8 219.601 355 201.734 355C198.001 355 194.268 354.733 190.534 354.2C186.801 353.933 183.068 353.533 179.334 353C186.534 316.2 193.601 280.333 200.534 245.4C203.201 230.733 206.001 215.533 208.934 199.8C211.868 183.8 214.668 168.067 217.334 152.6C220.001 137.133 222.534 122.333 224.934 108.2C227.601 94.0667 229.734 81.2667 231.334 69.8C242.801 67.6667 254.401 65.6667 266.134 63.8C277.868 61.9333 289.868 61 302.134 61C316.534 61 328.668 63.2667 338.534 67.8C348.668 72.3333 356.801 78.6 362.934 86.6C369.334 94.6 374.001 103.933 376.934 114.6C379.868 125.267 381.334 136.6 381.334 148.6ZM286.934 117.4C284.001 133.133 280.934 148.2 277.734 162.6C274.534 177 271.334 191.533 268.134 206.2C264.934 220.867 261.734 236.2 258.534 252.2C255.334 268.2 252.268 285.667 249.334 304.6C255.734 300.333 261.868 294.6 267.734 287.4C273.868 279.933 279.601 271.4 284.934 261.8C290.268 252.2 295.068 242.067 299.334 231.4C303.868 220.733 307.734 210.333 310.934 200.2C314.134 190.067 316.534 180.6 318.134 171.8C320.001 163 320.934 155.4 320.934 149C320.934 139.133 318.134 131.4 312.534 125.8C307.201 120.2 298.668 117.4 286.934 117.4ZM557.897 148.6C557.897 162.467 555.897 177.267 551.897 193C547.897 208.467 542.297 223.933 535.097 239.4C527.897 254.6 518.964 269.267 508.297 283.4C497.897 297.267 486.03 309.533 472.697 320.2C459.364 330.6 444.697 339 428.697 345.4C412.964 351.8 396.164 355 378.297 355C374.564 355 370.83 354.733 367.097 354.2C363.364 353.933 359.63 353.533 355.897 353C363.097 316.2 370.164 280.333 377.097 245.4C379.764 230.733 382.564 215.533 385.497 199.8C388.43 183.8 391.23 168.067 393.897 152.6C396.564 137.133 399.097 122.333 401.497 108.2C404.164 94.0667 406.297 81.2667 407.897 69.8C419.364 67.6667 430.964 65.6667 442.697 63.8C454.43 61.9333 466.43 61 478.697 61C493.097 61 505.23 63.2667 515.097 67.8C525.23 72.3333 533.364 78.6 539.497 86.6C545.897 94.6 550.564 103.933 553.497 114.6C556.43 125.267 557.897 136.6 557.897 148.6ZM463.497 117.4C460.564 133.133 457.497 148.2 454.297 162.6C451.097 177 447.897 191.533 444.697 206.2C441.497 220.867 438.297 236.2 435.097 252.2C431.897 268.2 428.83 285.667 425.897 304.6C432.297 300.333 438.43 294.6 444.297 287.4C450.43 279.933 456.164 271.4 461.497 261.8C466.83 252.2 471.63 242.067 475.897 231.4C480.43 220.733 484.297 210.333 487.497 200.2C490.697 190.067 493.097 180.6 494.697 171.8C496.564 163 497.497 155.4 497.497 149C497.497 139.133 494.697 131.4 489.097 125.8C483.764 120.2 475.23 117.4 463.497 117.4ZM561.659 347L580.059 266.6C580.059 255.133 579.793 242.733 579.259 229.4C578.993 215.8 578.459 202.2 577.659 188.6C576.859 175 576.059 161.933 575.259 149.4C574.459 136.6 573.793 125.4 573.259 115.8C572.726 105.933 572.193 98.0667 571.659 92.2C571.126 86.3333 570.859 83.4 570.859 83.4L636.059 58.6V107.4C636.059 114.067 636.059 120.867 636.059 127.8C636.059 134.733 635.926 141.533 635.659 148.2C635.659 154.867 635.659 161.133 635.659 167C635.659 172.867 635.659 177.8 635.659 181.8C639.126 172.733 643.259 161.533 648.059 148.2C653.126 134.867 657.793 121.933 662.059 109.4C667.126 94.7333 672.326 79.2667 677.659 63L739.659 77C728.193 99.9333 716.993 122.733 706.059 145.4C701.526 155.267 696.726 165.533 691.659 176.2C686.593 186.6 681.526 197.133 676.459 207.8C671.393 218.2 666.459 228.333 661.659 238.2C656.859 248.067 652.459 257.267 648.459 265.8C647.126 272.733 645.393 280.333 643.259 288.6C641.393 296.867 639.526 304.733 637.659 312.2C635.259 321 632.726 329.8 630.059 338.6L561.659 347ZM861.575 254.2C861.575 269.133 858.642 282.733 852.775 295C847.175 307 839.442 317.4 829.575 326.2C819.975 335 808.508 341.8 795.175 346.6C782.108 351.4 767.975 353.8 752.775 353.8C742.108 353.8 731.442 351 720.775 345.4C710.108 339.533 699.842 330.333 689.975 317.8L719.575 259.8C721.442 263.267 724.242 266.867 727.975 270.6C731.708 274.067 735.842 277.133 740.375 279.8C745.175 282.467 749.842 284.733 754.375 286.6C759.175 288.2 763.442 289 767.175 289C770.375 289 773.708 288.467 777.175 287.4C780.642 286.333 783.842 284.733 786.775 282.6C789.708 280.467 791.975 278.067 793.575 275.4C795.442 272.467 796.375 269.133 796.375 265.4C796.375 259 794.242 253.133 789.975 247.8C785.975 242.2 780.908 237 774.775 232.2C768.642 227.133 761.975 222.067 754.775 217C747.575 211.933 740.908 206.6 734.775 201C728.908 195.4 723.842 189.133 719.575 182.2C715.308 175.267 713.175 167.533 713.175 159C713.175 145.133 717.308 132.2 725.575 120.2C733.842 108.2 744.108 97.9333 756.375 89.4C768.908 80.6 782.508 73.6667 797.175 68.6C811.842 63.5333 825.708 61 838.775 61C845.975 61 852.775 61.9333 859.175 63.8C865.575 65.4 871.042 68.2 875.575 72.2C880.375 75.9333 884.108 80.7333 886.775 86.6C889.708 92.4667 891.175 99.8 891.175 108.6C891.175 112.333 890.775 116.067 889.975 119.8C889.442 123.533 888.908 127.533 888.375 131.8L830.375 148.6C830.908 146.467 831.308 144.333 831.575 142.2C832.108 140.067 832.375 137.933 832.375 135.8C832.375 127.8 830.908 122.067 827.975 118.6C825.308 114.867 821.708 113 817.175 113C815.042 113 812.375 113.8 809.175 115.4C806.242 117 803.175 119.133 799.975 121.8C797.042 124.2 794.508 127.133 792.375 130.6C790.242 134.067 789.175 137.8 789.175 141.8C789.175 148.2 790.908 153.533 794.375 157.8C798.108 162.067 802.642 166.067 807.975 169.8C813.308 173.533 819.042 177.4 825.175 181.4C831.575 185.133 837.442 190.067 842.775 196.2C848.108 202.333 852.508 210.067 855.975 219.4C859.708 228.467 861.575 240.067 861.575 254.2Z" fill="black"/>
</svg>
