<?xml version="1.0" encoding="utf-8"?>
<!-- Generator: Adobe Illustrator 23.0.2, SVG Export Plug-In . SVG Version: 6.00 Build 0)  -->
<svg version="1.1" id="Layer_1" xmlns="http://www.w3.org/2000/svg" xmlns:xlink="http://www.w3.org/1999/xlink" x="0px" y="0px"
	 viewBox="0 0 500 500" style="enable-background:new 0 0 500 500;" xml:space="preserve">
<style type="text/css">
	.st0{fill:#070707;}
	.st1{fill:#FFFFFF;}
	.st2{fill-rule:evenodd;clip-rule:evenodd;}
	.st3{fill:#C12A21;}
	.st4{fill:#272425;}
	.st5{fill:#221F1E;}
	.st6{opacity:0.93;}
</style>
<g>
	<path d="M227.16,273.38c-0.87,0.96-1.71,1.94-2.6,2.88c-2.96,3.12-5.67,6.56-8.99,9.23c-4.37,3.5-8.54,1.68-9.74-3.78
		c-0.17-0.76-0.56-2.07-0.93-3.14c-0.27-0.78-1.28-0.98-1.82-0.34c-2.32,2.75-7.79,8.8-10.86,11.58c-1.49,1.35-3.66,2.24-5.67,2.7
		c-4.98,1.14-8.89-2.78-7.53-7.67c1.15-4.14,2.94-8.09,4.45-12.13c0.23-0.62,0.49-1.23,0.73-1.85c-0.13-0.13-0.26-0.25-0.39-0.38
		c-0.55,0.3-1.16,0.54-1.65,0.92c-5.34,4.06-10.53,8.33-16.04,12.14c-3.57,2.47-7.51,4.49-11.47,6.3
		c-4.12,1.88-8.88,0.19-10.68-3.57c-1.28-2.68-0.97-5.63-0.03-8.32c1.12-3.21,2.68-6.26,4.05-9.38c0.27-0.61,0.76-1.85,1.03-2.46
		c0.4-0.62,0.37-1.17-0.44-0.33c-0.44,0.26-11.26,10.16-16.16,14.55c-0.91,0.82-1.75,1.77-2.8,2.37c-0.89,0.51-2.04,0.87-3.04,0.81
		c-1.65-0.1-2.15-1.17-1.13-2.5c2.89-3.79,5.79-7.59,8.92-11.18c6.06-6.94,12.98-12.94,20.95-17.6c1.39-0.81,3.31-1.04,4.97-1
		c1.85,0.04,2.95,1.52,2.49,3.31c-0.81,3.16-1.82,6.29-3,9.33c-1.92,4.92-4.11,9.73-6.03,14.65c-0.09,0.24-0.15,0.5-0.18,0.76
		c-0.19,1.55,1.41,2.61,2.8,1.89c0.13-0.07,0.25-0.14,0.36-0.22c3.8-2.67,7.42-5.6,11.25-8.22c6.28-4.28,12.6-8.5,19.07-12.48
		c1.65-1.02,3.89-1.28,5.9-1.45c2.31-0.2,3.69,1.26,3.54,3.59c-0.11,1.78-0.45,3.6-1.07,5.27c-1.19,3.19-5.31,10.27-3.92,10.87
		c0.88,0.35,9.5-10.28,14.52-13.31c1.87-1.13,4.05-2.03,6.19-2.39c2.3-0.39,3.77,1.25,3.71,3.61c-0.04,1.8-0.35,3.59-0.53,5.38
		c-0.08,0.78-0.16,1.56-0.24,2.35c0.17,0.09,0.35,0.18,0.52,0.27c0.49-0.5,1.04-0.95,1.47-1.49c3.47-4.37,7.05-8.64,12.4-10.8
		c1.5-0.61,3.26-1.17,4.79-0.96c3.05,0.42,4.59,3.8,3.84,7.49c-0.32,1.57-0.57,3.16-0.84,4.74c-0.01,0.09,0.14,0.2,0.44,0.62
		c0.55-0.59,1.13-1.1,1.57-1.7c2.97-4.02,6.53-7.33,11.2-9.24c0.98-0.4,2.15-0.54,3.23-0.5c1.81,0.07,3.25,1.58,3.31,3.4
		c0.1,3,0.17,6,0.31,9c0.03,0.71,0.27,1.84,0.55,2.5c0.79,1.82,1.54,2.02,3.31,1.1c6.89-3.57,12.56-8.66,17.28-14.69
		c7.98-10.2,15.69-20.63,23.49-30.97c0.37-0.49,0.62-1.08,1.1-1.95c-0.97-0.08-1.64-0.19-2.3-0.17c-8.32,0.25-16.63,0.58-24.95,0.75
		c-5.48,0.11-10.97,0-16.46-0.08c-1.24-0.02-3,0.14-3.12-1.51c-0.14-1.81,1.67-1.89,2.99-2.02c8.41-0.83,16.81-1.66,25.23-2.36
		c7.13-0.6,14.27-1.07,21.42-1.48c1.64-0.09,2.3-1.12,2.79-2.28c2.3-5.51,4.59-11.03,6.69-16.62c0.93-2.49,3.28-4.17,5.94-4.17
		c1.13,0,2.26-0.01,3.39,0.01c3.18,0.04,4.47,2.37,2.87,5.12c-2.34,4.01-4.68,8.02-6.99,12.04c-0.67,1.17-1.25,2.4-1.86,3.61
		c-0.65,1.29-0.14,1.84,1.2,1.77c7.86-0.41,15.71-0.92,23.57-1.24c23.08-0.94,46.16-1.79,69.24-2.7c3.41-0.14,6.83-0.65,10.23-0.6
		c3.21,0.05,6.4,0.62,9.6,0.96c0.01,0.31,0.03,0.62,0.04,0.93c-2.7,0.67-5.36,1.67-8.1,1.94c-6.28,0.61-12.6,0.86-18.91,1.27
		c-13.2,0.87-26.39,1.8-39.59,2.62c-12.68,0.79-25.37,1.48-38.06,2.23c-3.99,0.24-7.99,0.43-11.95,0.9
		c-0.92,0.11-2.04,1.09-2.53,1.96c-3.58,6.49-7.2,12.97-10.46,19.63c-3.28,6.71-6.18,13.61-9.18,20.46
		c-0.64,1.47-1.05,3.05-1.51,4.59c-0.13,0.44-0.06,0.93-0.09,1.4c0.15,0.09,0.31,0.17,0.46,0.26c1.41-1.43,2.87-2.82,4.23-4.3
		c2.01-2.18,3.97-4.42,5.93-6.64c1.83-2.08,4.1-3.13,6.9-3.04c1.66,0.05,3,1.42,3.14,3.08c0.25,3.01,0.72,6,1.09,8.99
		c0.22,0.04,0.44,0.09,0.67,0.13c0.52-0.4,1.08-0.77,1.56-1.22c5.37-4.94,10.92-9.66,17.2-13.44c2.42-1.46,4.87-2.54,7.89-1.64
		c1.85,0.55,2.8,2.53,2.01,4.28c-0.62,1.37-1.48,2.64-2.12,4c-1.19,2.5-2.32,5.03-3.44,7.57c-0.21,0.49-0.24,1.06-0.35,1.59
		c0.15,0.12,0.3,0.24,0.45,0.36c0.54-0.4,1.15-0.74,1.61-1.22c3.56-3.67,7.08-7.37,10.63-11.05c0.51-0.53,1.41-1.32,2-1.76
		c4.03-3.02,6.09-2.98,10.17,0.14c1.17,0.89,2.3,2.44,3.51,2.51c1.17,0.06,2.42-1.4,3.63-2.19c5.21-3.43,10.86-5.42,17.17-4.77
		c1.96,0.2,3.97,0.69,5.76,1.49c4.1,1.84,4.92,5.75,2.18,9.66c-2.57,3.66-6.02,6.31-10.28,7.51c-3.62,1.02-7.42,1.41-11.14,2.1
		c-0.52,0.1-1,0.33-1.51,0.5c0.29,0.46,0.5,1.02,0.9,1.35c2.55,2.11,5.68,2.55,8.77,2.34c4.17-0.28,8.35-0.79,12.45-1.59
		c13.49-2.64,26.71-6.37,39.81-10.49c9.84-3.09,19.63-6.3,29.49-9.34c3.5-1.08,7.1-1.82,10.67-2.69c0.22-0.05,0.48,0.06,1.3,0.17
		c-0.77,0.56-1.13,0.95-1.57,1.12c-5.82,2.29-11.59,4.71-17.48,6.78c-12.16,4.27-24.38,8.4-36.6,12.48
		c-11.02,3.68-22.16,6.9-33.79,8.02c-5.21,0.5-10.41,0.79-15.61-0.27c-4.75-0.97-8.83-4.39-8.61-9.63c0.04-0.85-0.87-1.93-1.61-2.58
		c-1.2-1.05-2.75-1.71-3.93-2.78c-1.18-1.06-1.78-0.78-2.58,0.37c-3.02,4.38-6.47,8.42-10.85,11.47c-2.13,1.49-4.58,2.69-7.06,3.46
		c-3.99,1.25-8.55-1.19-8.53-6c0.01-1.71,0-3.43,0-5.58c-0.8,0.59-1.36,0.93-1.84,1.37c-3.13,2.87-6.13,5.89-9.4,8.58
		c-1.91,1.57-4.36,2.2-6.93,1.64c-1.9-0.42-3.31-2-3.62-3.92c-0.26-1.61-0.66-3.19-1.1-5.26c-0.89,0.82-1.4,1.26-1.88,1.73
		c-2.31,2.25-4.56,4.57-6.95,6.73c-2.29,2.06-4.95,3.1-8,1.73c-3.16-1.43-4.49-4.17-4.77-7.42c-0.36-4.07,0.62-7.94,2.22-11.66
		c0.21-0.49,0.38-1,0.57-1.5c-0.14-0.11-0.28-0.22-0.42-0.33c-0.45,0.36-0.96,0.67-1.33,1.1c-4.95,5.86-10.5,11.05-17.33,14.66
		c-2.43,1.28-5.05,2.36-7.72,3.01c-4.89,1.18-8.56-1.68-9.78-7.2c-0.36-1.61-0.72-3.22-1.22-5.47c-1.04,1.21-1.73,2.07-2.49,2.86
		c-1.92,1.98-3.71,4.15-5.86,5.84c-2.84,2.23-6.52,2.46-8.48,0.99c-2.5-1.87-3.9-6.27-3.03-9.46c0.15-0.56,0.21-1.15,0.31-1.72
		C227.55,273.59,227.36,273.49,227.16,273.38z M373.9,271.26c0.27,0.16,0.48,0.4,0.68,0.39c3.18-0.08,6.31-0.41,8.94-2.46
		c0.39-0.31,0.56-0.9,0.84-1.37c-0.51-0.18-1.12-0.63-1.52-0.49c-2.88,1-5.73,2.11-8.57,3.21
		C374.1,270.62,374.04,270.97,373.9,271.26z"/>
	<path d="M102.83,227.57c-0.08-0.71-0.11-1.43-0.11-2.14c-0.03-3.39,1.57-6.71,4.52-8.39c3.31-1.88,6.1-0.1,7.47,3.84
		c2.2,6.36,1.28,12.9,0.56,19.34c-0.49,4.36-1.24,8.67-1.99,12.99c-0.35,2.02,0.07,2.5,1.9,1.92c12.41-3.96,24.24-9.18,35.14-16.35
		c6.24-4.1,12.68-8.04,17.32-14.09c1.26-1.65,2.38-3.6,2.9-5.59c0.9-3.44-0.83-6.09-3.51-8.19c-4.4-3.46-9.48-4.77-14.98-4.91
		c-7.02-0.18-13.88,0.94-20.65,2.66c-7.05,1.79-14.22,3.26-21.09,5.6c-9.51,3.25-18.81,7.11-28.16,10.83
		c-13.27,5.28-25.69,12.3-38.29,18.95c-3.75,1.98-7.7,3.63-11.66,5.15c-1.34,0.51-3.1,0.46-4.54,0.11
		c-2.85-0.69-3.54-4.09-1.43-6.57c3.1-3.65,6.98-6.39,11.2-8.47c12.48-6.15,24.94-12.4,37.67-18c10.02-4.41,20.35-8.13,30.7-11.73
		c5.63-1.96,11.53-3.23,17.38-4.46c9.67-2.03,19.47-3.24,29.36-2.73c6.59,0.34,13.07,1.46,19,4.68c8.78,4.76,10.27,13.61,6.39,21.56
		c-2.92,5.99-7.95,10.08-13.12,13.97c-7.96,5.99-16.36,11.33-25.61,15.08c-7.28,2.95-14.69,5.62-22.18,7.98
		c-5.73,1.81-5.79,1.52-7.51,7.21c-3.5,11.55-7.87,22.78-12.86,33.77c-0.01,0.02-0.02,0.06-0.04,0.12c-0.64,1.8-3.34,1.04-2.92-0.82
		c1.03-4.51,2.95-10.37,3.64-13.19c1.63-6.7,3.25-13.4,4.72-20.13c0.63-2.88,0.28-2.96-2.53-2.44C89.25,267.03,79,269.1,68.49,269
		c-3.89-0.04-7.73-0.47-11.29-2.25c-0.4-0.2-0.88-0.32-1.2-0.61c-0.34-0.32-0.52-0.8-0.76-1.21c0.44-0.17,0.87-0.48,1.32-0.49
		c5.09-0.09,10.2,0.17,15.26-0.27c6.1-0.53,12.15-1.55,18.2-2.53c2.3-0.37,4.57-0.85,6.83-1.41c6.15-1.51,6.48-0.75,6.92-4.58
		C104.13,252.52,103.51,233.76,102.83,227.57z"/>
	<path d="M202.72,238.83c-2.04,0.02-3.56,0.13-4.02-1.56c-0.44-1.6,0.55-2.67,1.8-3.52c5.29-3.57,10.96-6.22,17.32-7.27
		c1.69-0.28,3.07,0.17,3.78,1.62c0.79,1.62,0.1,3.23-1.43,3.95c-4.53,2.13-9.13,4.11-13.76,6.01
		C205.07,238.61,203.53,238.67,202.72,238.83z"/>
	<path d="M334.01,239.56c0.71,0,1.48-0.18,2.11,0.05c0.7,0.25,1.56,0.75,1.78,1.36c0.16,0.42-0.5,1.51-1.04,1.76
		c-2.98,1.36-5.97,2.74-9.07,3.77c-2.73,0.91-5.61,1.38-8.42,2.02c-0.49,0.11-1.1,0.26-1.51,0.08c-0.87-0.39-2.02-0.84-2.34-1.57
		c-0.23-0.52,0.54-1.8,1.19-2.31c3.39-2.64,7.39-3.82,11.57-4.47c1.9-0.29,3.82-0.52,5.72-0.78C334,239.5,334,239.53,334.01,239.56z
		"/>
	<path d="M263.03,244.4c1.08,0.5,2.76,0.75,3.11,1.56c0.64,1.51-0.92,2.49-2.13,2.93c-3.86,1.4-7.77,2.66-11.72,3.77
		c-0.67,0.19-1.79-0.47-2.37-1.06c-0.22-0.23,0.3-1.54,0.79-2.06C254,246.12,258.33,245.22,263.03,244.4z"/>
</g>
</svg>
