<?xml version="1.0" encoding="utf-8"?>
<!-- Generator: Adobe Illustrator 25.4.1, SVG Export Plug-In . SVG Version: 6.00 Build 0)  -->
<svg version="1.1" id="Calque_1" xmlns="http://www.w3.org/2000/svg" xmlns:xlink="http://www.w3.org/1999/xlink" x="0px" y="0px"
	 viewBox="0 0 500 500" style="enable-background:new 0 0 500 500;" xml:space="preserve">
<style type="text/css">
	.st0{stroke:#000000;stroke-width:4;stroke-linecap:round;stroke-linejoin:round;stroke-miterlimit:10;}
	.st1{fill:#FFFFFF;}
	.st2{fill:#070707;}
</style>
<g>
	<path class="st2" d="M85,267.9c-2.3,1.4-6.1,2-11.6,2H57.1v-14.6h16.2c5.6,0,9.5,0.6,11.7,1.9c2.2,1.3,3.3,3,3.3,5.1
		C88.3,264.7,87.2,266.6,85,267.9 M57.1,228h14.1c4.8,0,8.2,0.6,10.2,1.8c1.9,1.2,2.9,2.8,2.9,4.9c0,2.3-1,4-2.9,5.2
		c-1.9,1.2-5.4,1.8-10.4,1.8H57.1V228z M115,253.5c-3.5-3-8.9-5.2-16.3-6.4c4.9-1.2,8.6-2.8,11.1-4.8c3.8-3.1,5.7-6.7,5.7-11
		c0-5.1-2.7-9.4-8-12.8c-5.3-3.4-12.9-5.2-22.9-5.2H25v72.1h55c2.3,0,7.1-0.3,14.3-1c5.4-0.5,9.4-1.3,12.1-2.4
		c4.3-1.7,7.7-4.1,10.2-7.1c2.5-3,3.7-6.3,3.7-10.1C120.3,260.4,118.5,256.6,115,253.5"/>
	<path class="st2" d="M326.8,254.7c0.5-3.1,1.6-5.5,3.3-7c2.7-2.5,6.3-3.8,10.9-3.8c3.9,0,7.1,0.8,9.5,2.5c2.4,1.7,3.9,4.4,4.5,8.3
		H326.8z M292.1,272.5c-2.3,0-4-0.6-4.9-1.7c-0.6-0.7-0.9-2.2-0.9-4.4v-18.5h14.5c-2.1,3.4-3.1,7.3-3.1,11.6c0,4.4,1.1,8.3,3.2,11.8
		C297.1,272.1,294.2,272.5,292.1,272.5 M428.1,232c-4,0-7.4,0.7-10.2,2.1c-2.7,1.4-5.4,3.9-8,7.6v-8.6h-26.8v20.5
		c-0.8-3.2-2.1-6-3.9-8.4c-3.2-4.3-7.9-7.6-14.1-9.8c-6.2-2.3-14.6-3.4-25.3-3.4c-13.2,0-23.5,2.5-31,7.6c-2.8,1.9-5.1,4-6.9,6.4
		v-12.8h-15.8v-19.9l-28.7,10.3v9.6h-5.1H247h-10.3v-19.9l-28.7,10.3v9.6h-8.8h-1.7h-26.9v25.1c0,4.8-1.1,8.1-3.3,9.9
		c-2.2,1.8-5,2.8-8.4,2.8c-3.1,0-5.6-0.7-7.3-2.1c-1.7-1.4-2.6-3.7-2.6-7v-28.7h-28.8v33.3c0,6.9,2.2,11.9,6.7,15.2
		c4.5,3.3,10.6,4.9,18.5,4.9c5.9,0,10.9-0.7,14.9-2.2c4.1-1.5,8.1-4,12.1-7.4v8.5h26.7v-37.6h8.8v18.4c0,5.8,0.8,10.1,2.4,12.7
		c1.6,2.6,4.1,4.5,7.5,5.8c3.4,1.3,8.6,1.9,15.7,1.9c6.1,0,12.7-0.5,19.8-1.6l-2.1-13.8c-3.8,0.8-6.8,1.3-8.9,1.3
		c-2.3,0-4-0.6-4.9-1.7c-0.6-0.7-0.9-2.2-0.9-4.4v-18.5H247h5.5h5.1v18.4c0,5.8,0.8,10.1,2.4,12.7c1.6,2.6,4.1,4.5,7.5,5.8
		c3.4,1.3,8.6,1.9,15.7,1.9c6.1,0,12.7-0.5,19.8-1.6l-2.1-13.7c0.7,1.1,1.4,2.1,2.3,3.1c3.7,4.2,8.4,7.3,14.1,9.3
		c5.7,2,13.4,2.9,23.3,2.9c11.4,0,20.1-1.1,26.2-3.4c6.1-2.3,11.3-6,15.6-11.3l-28.2-1.8c-1.8,1.6-3.4,2.7-5,3.3
		c-2.5,1-5.2,1.5-8,1.5c-4.5,0-8.1-1.1-10.8-3.4c-2-1.6-3.2-4-3.7-7.2h56.4v21.2h28.8V268c0-8.4,1.5-14.1,4.4-17.1
		c2.1-2.2,5-3.3,8.7-3.3c2,0,4.6,0.5,8,1.5l8.9-14.3C436.9,233,432.3,232,428.1,232"/>
	<path class="st2" d="M460.4,242.9c0.9,0,1.7-0.1,2.3-0.4c0.6-0.3,0.9-0.9,0.9-1.9c0-0.4-0.1-0.8-0.3-1c-0.2-0.3-0.5-0.5-0.8-0.6
		c-0.3-0.1-0.7-0.2-1.1-0.3c-0.4-0.1-0.8-0.1-1.1-0.1h-2.7v4.3H460.4z M460.5,236.1c2,0,3.6,0.4,4.7,1.1c1.1,0.7,1.6,2,1.6,3.7
		c0,0.8-0.1,1.4-0.3,1.9c-0.2,0.5-0.5,1-0.9,1.3c-0.4,0.3-0.8,0.6-1.4,0.8c-0.5,0.2-1.1,0.3-1.7,0.3l4.3,7.1h-3.4l-4-6.9h-2v6.9
		h-3.2v-16.2H460.5z M450,248.8c0.6,1.4,1.3,2.6,2.3,3.6c1,1,2.1,1.8,3.5,2.4c1.3,0.6,2.8,0.9,4.3,0.9c1.5,0,2.9-0.3,4.2-0.9
		c1.3-0.6,2.5-1.4,3.5-2.4c1-1,1.8-2.2,2.3-3.6c0.6-1.4,0.9-2.9,0.9-4.6c0-1.7-0.3-3.2-0.9-4.6c-0.6-1.4-1.4-2.6-2.3-3.6
		c-1-1-2.1-1.8-3.5-2.4c-1.3-0.6-2.7-0.8-4.2-0.8c-1.5,0-3,0.3-4.3,0.8c-1.3,0.6-2.5,1.4-3.5,2.4c-1,1-1.8,2.2-2.3,3.6
		c-0.6,1.4-0.8,2.9-0.8,4.6C449.2,245.9,449.5,247.4,450,248.8 M446.4,238.2c0.8-1.8,1.9-3.3,3.3-4.6c1.4-1.3,3-2.2,4.7-2.9
		s3.7-1,5.6-1c2,0,3.8,0.3,5.6,1c1.8,0.7,3.4,1.7,4.8,2.9c1.4,1.3,2.5,2.8,3.3,4.6c0.8,1.8,1.2,3.8,1.2,6c0,2.2-0.4,4.2-1.2,6
		c-0.8,1.8-1.9,3.3-3.3,4.6c-1.4,1.3-3,2.2-4.8,2.9c-1.8,0.7-3.7,1-5.6,1c-2,0-3.8-0.3-5.6-1c-1.8-0.7-3.4-1.6-4.7-2.9
		c-1.4-1.3-2.5-2.8-3.3-4.6c-0.8-1.8-1.2-3.8-1.2-6C445.2,242,445.6,240,446.4,238.2"/>
</g>
</svg>
