<?xml version="1.0" encoding="utf-8"?>
<!-- Generator: Adobe Illustrator 23.0.2, SVG Export Plug-In . SVG Version: 6.00 Build 0)  -->
<svg version="1.1" id="Layer_1" xmlns="http://www.w3.org/2000/svg" xmlns:xlink="http://www.w3.org/1999/xlink" x="0px" y="0px"
	 viewBox="0 0 500 500" style="enable-background:new 0 0 500 500;" xml:space="preserve">
<style type="text/css">
	.st0{fill:#070707;}
	.st1{fill:#FFFFFF;}
	.st2{fill-rule:evenodd;clip-rule:evenodd;}
	.st3{fill:#C12A21;}
	.st4{fill:#272425;}
	.st5{fill:#221F1E;}
	.st6{opacity:0.93;}
</style>
<path d="M362.63,415.36l0.25,0.25l-0.48,1.5l-2.47-2.3l0.09-0.1c0.29-0.3,0.8-0.38,1.45-0.21
	C361.81,414.58,362.24,415,362.63,415.36z M334.8,437.42c-0.43-0.19-0.98-0.37-1.41-0.07l-0.11,0.07l1.92,2.8l0.79-1.38l-0.09-0.12
	C335.39,437.93,335.03,437.52,334.8,437.42z M409.92,215.68c-3.03,12.74-4,25.94-2.94,39.6c-0.24,9.7,1.71,19.29,4.44,30.76
	c12.16,64.32-16.32,130.87-72.78,165.08c-40.96,26.24-101.85,31.16-145.89,13.26c-59.5-22.7-100.57-75.27-106.24-140.23
	c-1.56-29.11,6.35-53.38,7.72-74.54c-0.06-15.2-3.53-25.81-3.53-25.81c-0.03-0.09-0.04-0.19-0.06-0.3
	c-16.63-53.47-3.69-107.34,30.09-138.84c3.93-3.25,8.03-6.41,12.63-8.84c0,0-0.82,5.05-0.63,8.3c0.12,27.27,7.83,43.49,24.77,56.28
	c-5.21-23.69,3.75-44.2,9.73-65.39c2.8-15.58-2.31-33.95-15.01-43.37c-3.32-2.58-6.79-4.5-10.4-5.74c0,0,2.97-0.59,6.18-0.73
	c15.79-1.12,28.45,3.71,41.97,8.58c43.67,20.11,69.15,46.2,82.45,79.98c1.55-3.25,1.39-7.39,2.24-11.07
	c1.71-20.76-6.89-37.77-13.29-56.55c-1.13-4.52-1.74-10.39-0.98-13.5c0,0,3.19,2.95,4.72,3.94c3.44,2.61,11.39,6.37,15.03,8.1
	c5.13,2.66,5.28,2.51,10.24,4.69c13.64,6.39,20.38,10.27,35.44,22.74c6.49,6.71,12.15,12,17.54,20.79c2.07,3.12,6,9.72,7.82,12.94
	c4.64-7.79,9.37-19.3,14.76-25.25c7.24-8.72,15.24-16,27.2-16.63c0,0-2.56,5.38-3.62,7.78c-6.52,17.75-5.05,36.68,7.59,58.89
	c10.27,16.09,21.44,34.49,19.19,55.21C415.23,196,411.29,205.52,409.92,215.68z M332.33,444.73c-0.63-1.77-2.31-1.79-3.94-1.8
	c-1.27-0.02-2.47-0.03-3.04-0.91c-0.02-0.04-0.03-0.06-0.03-0.11c0-0.03,0.01-0.06,0.03-0.1c0.16-0.29,1.21-0.47,1.87-0.49
	c0.34-0.01,0.76,0.03,1.03,0.18c0.05-0.34,0.24-1.6,0.28-1.76c-0.86-0.34-2.05-0.07-2.82,0.39c-0.21,0.13-0.92,1.39-1.19,2.46
	c-0.12,0.46-0.12,0.8-0.02,0.96c0.84,1.4,2.25,1.43,3.61,1.47c1.26,0.03,2.46,0.05,3.1,1.14l0.07,0.11l-0.11,0.06
	c-1.01,0.6-2.68,0.64-3.47,0.28c-0.06,0.25-0.44,1.88-0.47,2.09c1.18,0.39,3.38-0.45,4.11-0.97
	C331.37,447.65,332.3,444.82,332.33,444.73z M335.82,441.15c0,0,2.16-3.7,2.25-3.84c-0.81-1.16-1.74-1.85-2.77-2.05
	c-1.28-0.24-2.36,0.36-2.8,0.65c-0.03,0.06-1.31,2.92-1.37,3.04c0.07,0.12,4.01,5.87,4.14,6.06c0.18-0.12,1.99-1.37,2.17-1.49
	C337.32,443.35,335.82,441.15,335.82,441.15z M344.88,438.2c-0.14-0.19-5.29-7.04-5.43-7.23c-0.18,0.13-2.04,1.54-2.21,1.67
	c0.14,0.19,5.28,7.04,5.43,7.23C342.84,439.74,344.7,438.34,344.88,438.2z M350.34,433.84c-0.15-0.19-4.77-5.81-4.77-5.81
	s1.59-1.3,1.77-1.45c-0.13-0.15-0.85-1.02-0.98-1.17c-0.18,0.14-4.82,3.96-4.97,4.07c0.06,0.14,0.52,1.24,0.62,1.48
	c0.21-0.18,1.47-1.21,1.47-1.21s4.61,5.62,4.77,5.81C348.41,435.42,350.17,433.98,350.34,433.84z M355.68,429.22
	c-0.16-0.17-2.73-3.03-2.73-3.03s1.73-1.56,1.91-1.71c-0.13-0.14-0.64-0.71-0.77-0.84c-0.16,0.14-1.9,1.7-1.9,1.7l-1.36-1.5
	c0,0,1.78-1.61,1.9-1.73c-0.05-0.14-0.68-1.43-0.8-1.67c-0.21,0.2-2.09,1.89-2.14,1.94c-0.02,0.06-0.93,3.05-0.97,3.17
	c0.09,0.1,4.75,5.26,4.91,5.44C353.89,430.84,355.52,429.37,355.68,429.22z M361.55,423.7c-0.17-0.17-6.15-6.31-6.31-6.48
	c-0.16,0.16-1.83,1.78-1.99,1.94c0.16,0.17,6.15,6.3,6.31,6.47C359.72,425.48,361.39,423.85,361.55,423.7z M367.97,417.02
	c-0.16-0.16-1.47-1.39-1.47-1.39c-0.7-0.65-1.99-0.43-2.37-0.04l-0.19-0.12c0,0,0.49-1.58,0.53-1.72c-2.29-2.11-4.45-1.45-5.63-0.22
	c-0.01,0.08-0.66,3.11-0.68,3.24c0.09,0.09,5.17,4.85,5.34,5.01c0.14-0.16,1.66-1.77,1.8-1.93c-0.16-0.15-2.13-2-2.13-2l0.08-0.09
	c0.24-0.25,0.51-0.39,0.8-0.4c0.7-0.02,1.43,0.68,2.22,1.41c0,0,0.02,0.02,0.03,0.03C366.45,418.63,367.82,417.18,367.97,417.02z
	 M372.86,411.32c-0.1-0.13-1.08-1.51-1.23-1.73c-0.19,0.22-1.99,2.39-1.99,2.39l-1.55-1.32c0,0,1.5-1.78,1.64-1.95
	c-0.14-0.13-0.73-0.62-0.87-0.74c-0.15,0.17-1.65,1.96-1.65,1.96l-1.55-1.31c0,0,1.56-1.84,1.67-1.97
	c-0.09-0.13-0.88-1.31-1.02-1.54c-0.19,0.22-1.82,2.15-1.86,2.21c-0.01,0.06-0.51,3.14-0.54,3.28c0.11,0.09,5.41,4.56,5.6,4.72
	C369.65,415.12,372.74,411.46,372.86,411.32z M389.4,214.9c0.53-1.65,0.91-3.28,1.28-5.02c3.86-12.02,6.76-32.04,0.45-47.58
	c-8.55-15.67-16.26-32.45-20.94-53.38c-6.54,11.66-8.72,37.89-16.27,51.62c-1.23,2.81-4.27,6.72-5.78,6.97
	c1.71-68.32-60.62-101.8-60.62-101.8c6.29,21.03,6.6,44.36-1.68,63.04c-5.39,8.72-10.65,18.05-19.75,22.93
	c-1.42-1.46-1.26-4.48-1.66-6.25C252.59,104.96,223.13,74.05,185,52.2c4.93,14.96,2.91,30.58-2.19,44.18
	c-7.55,18.46-9.6,40.32-2.48,59.93c1.06,0.87,1.1,2.68,2.1,3.17c-13.12,2.79-26.84,1.93-38.57-4.39
	c-14.41-8.37-24.29-22.53-24.07-39.52c-13.27,22.51-20.45,48.77-14.7,74.39c10.1,29.97,12.2,62.74,7.45,92.11
	c-11.83,52.8,10.56,110.86,53.37,142.22c43.15,32.37,103.05,36.53,151.26,11.3c47.18-24.27,79.67-81.31,74.4-134.47
	C385.55,271.43,383.27,242.02,389.4,214.9z M372.83,313.12c1.43,44.63-28.09,91.61-69.08,109.9
	c-46.59,21.72-98.67,11.83-135.96-20.03c-25.99-24.07-41.93-57.76-40.41-95.57c-0.42-1.9-2.53-2.72-3.59-4.38
	c-1.97-2.06-2.46-21.48,0.79-20.74l1.57,0.03c1.03-0.11,6.01,12.83,12.39,16.76c10.82,10.22,23.43,18.05,36.74,25.28
	c17.84,12.49,37.92,17.31,58.33,19.97c27.52,1.63,59.36-2.52,84.81-13.58c18.18-8.47,34.46-19.87,48.9-34.34
	c3.8-3.52,7.47-7.84,10.6-10.43C381.44,295.32,377.71,305.53,372.83,313.12z M139.24,332.41c1.96-2.54,4.55-5.04,5.92-7.75
	c-0.65-3.16-3.79-5.53-6.42-6.53C136.42,322.3,138.15,328.14,139.24,332.41z M149.13,327.07c-3.07,1.91-5.38,5.29-7.33,8.63
	c-1.52,7.54,1.72,14.32,5.17,20.4c1.75,0.39,1.4-0.38,1.63-2.07C147.71,344.75,148.89,335.97,149.13,327.07z M154.43,369.66
	c1.72-5.37,3.77-11.2,6.76-16.09c2.54-3.57,5.01-6.83,7.75-10c0.02-3.17-2.66-5.61-4.99-7.42c-2.33-1.83-10.23-8.61-11.18-3.14
	C151.37,344.72,151.58,357.88,154.43,369.66z M186.59,404c-2.91-8.03-7.08-15.28-8.64-24.04c-4.02-11.87-4.02-24.67-4.35-36.21
	c-7.7,8.7-13.69,19.98-16.47,30.87C164.51,385.56,175.04,395.83,186.59,404z M194.48,406.35c2.69-10.22,4.87-20.75,11.05-29.99
	c2.7-6.7,12.23-11.51,10.02-19.37c-2.69-2.92-9.06-4.82-12.6-5.76c-7.94-1.95-12.71-4.6-21.24-4.09c-3.39,1.48-3.62,5.8-3.85,9.09
	C179.13,374.43,183.2,393.84,194.48,406.35z M245.41,417.6c-9.28-17.67-17.87-35.84-20.4-57.74c-2.58,0.95-4.3,3.19-6.34,5.07
	c-9.25,12.07-19.69,26.44-18.42,42.14c0.55,7.38,8.89,8.1,13.76,10.04c9.56,2.61,19.31,6.38,29.59,4.55
	C245.05,421.28,246.37,419.51,245.41,417.6z M252.76,421.43c6.09-13,11.64-26.17,15-39.78c2.16-7.65,6.11-16.89,0.5-24.21
	c-2.54-1.16-6.39-0.4-8.31-0.45l-24.27,0.81c-1.47,0.37-2.66,1.2-3.66,2.44c-2.78,6.83,0.6,15.55,2.39,22.41
	C240.59,395.6,245.39,409.18,252.76,421.43z M302.84,393.94c-6.68-12.99-14.84-25.36-25.52-35.6c-2.34,12.75-5.25,25.23-10.19,37.37
	c-1.51,7.47-5.73,14.28-7.03,21.78c-0.25,3.21,2.77,4.14,4.86,4.94c13.83-1.6,27.99-5.09,38.92-12.61
	C307.4,405.07,303.94,398.99,302.84,393.94z M317.06,375.22c1.09-10.05,3.13-23.03-1.15-27.9l-1.78-1.61
	c-1.72-0.81-27.01,5.93-27.76,6.81l-1.47,1.93c-0.8,1.87-0.43,4.8,0.84,6.29c9.37,13.34,19.64,25.87,25.06,41.58
	C313.67,393.48,315.17,384.38,317.06,375.22z M321.83,345.22c0.34,5.43,0.31,10.82-0.28,15.99c0.32,11.55-2.7,22.48-3.46,33.82
	c0.39,1.99,1.78,2.99,4.08,1.83c5.04-4.2,10.91-8.32,14.2-14.58C339.97,367.71,329.92,355.66,321.83,345.22z M340.3,337.79
	c-3.5-4.78-9.59-0.38-12.38,2.41c-1.22,1.38-1.73,4.66-0.63,5.71c6.74,7.79,11.49,16.78,15.51,26.3
	C343.18,361.07,344.34,348.86,340.3,337.79z M354.99,353.52c-0.57-6.13-1.8-13.53-6.57-17.96c-1.29-1.51-3.11-2.38-4.92-2.99
	c2.94,9.97,3.89,20.51,4.53,30.98l0.15,1.53C351.08,362.11,353.07,356.95,354.99,353.52z M359.38,324.35l-1.5-1.99
	c-0.95-0.8-6.61,3.46-9.34,6.01c-1.01,4.2,4.23,5.55,6.29,9.66c1.45,1.53,1.23,5.14,3.98,3.64
	C361.48,336.52,360.2,326.13,359.38,324.35z M258.79,276.32c-1.14-1.79-2.2-3.72-0.43-4.9c9.84,3.48,23.12,2.61,31.55-4.23
	c10.99-10.94,21.65-22.33,35.83-28.2c5.11-1.78,11.66-2.14,16.87,0.13c0.34,0.47-0.13,0.95-0.45,1.36
	c-4.61,1.19-9.21,2.58-12.38,6.35c2.13,15.43-4.43,30.59-16.94,40.1c-4.84,3.11-12.89,5.86-18.57,3.02
	c-2.68-1.26-5.88-3.22-7.54-5.69C276.71,286.3,265.51,284.74,258.79,276.32z M295.47,279.44c21.81,6.86,25.3-21.78,25.09-22.89
	c-0.23-1.13-6.08,4.38-6.08,4.38L295.47,279.44z M155.63,255.87l0.36-1.26c11.03-7.55,26.5-8.53,37.94-1.5
	c5.73,3.26,9.04,8.16,14.44,11.73c10.22,8.12,23.61,15.06,37.13,12.33c1.44,1.71,1.53,3.78,0.96,5.87
	c-2.22,7.13-10.43,8.19-16.93,8.99c-2.48,0.15-4.79-0.51-7-0.7c-3.46,4.61-9.05,6.31-14.58,6.7c-12.7-0.28-22.85-12.04-28.64-21.93
	c-5.21-7.78-0.15-13.61-9.63-18.13C165.23,256.37,160.85,254.31,155.63,255.87z M184.13,265.91c0,0.01,0.01,0.01,0.02,0.03
	c0.47,0.92,9.86,28.98,29.86,19.88c0,0-10.55-4.97-17.4-12c-6.01-6.13-12.1-7.62-12.47-7.89
	C184.15,265.92,184.14,265.91,184.13,265.91z"/>
</svg>
