<?xml version="1.0" encoding="utf-8"?>
<!-- Generator: Adobe Illustrator 23.0.2, SVG Export Plug-In . SVG Version: 6.00 Build 0)  -->
<svg version="1.1" id="Layer_1" xmlns="http://www.w3.org/2000/svg" xmlns:xlink="http://www.w3.org/1999/xlink" x="0px" y="0px"
	 viewBox="0 0 500 500" style="enable-background:new 0 0 500 500;" xml:space="preserve">
<style type="text/css">
	.st0{fill:#070707;}
	.st1{fill:#FFFFFF;}
	.st2{fill-rule:evenodd;clip-rule:evenodd;}
</style>
<g>
	<g>
		<polygon points="294.01,326.56 210.69,328.48 213.99,176.56 297.32,174.63 		"/>
		<path class="st1" d="M217.05,322.72l-0.14-19.93c-0.05-39.73,0.81-78.26-0.38-116.43l31.67-3.07c-0.77,16.61,0.6,31.61,0.23,47.46
			c4.08-15.6,9.15-30.83,11.9-46.76c6.49-6.01,17.31-1.01,24.72-5.53l5.03,0.58c-5.5,21.81-11.02,43.64-16.52,65.44
			c7.33,22.1,12.18,45.89,18.11,68.8c-11.58,1.19-20.15,2.65-32.05,3.86c-2.23-17.27-6.91-33.71-10.18-50.55
			c-2.9,18.23,0.52,32.78-2.12,52.17C238.38,320.33,234.13,321.51,217.05,322.72z"/>
	</g>
	<g>
		<polygon points="382.03,319.13 304.09,325.93 296.64,179.34 374.58,172.54 		"/>
		<path class="st1" d="M311.07,318.25c-1.44-33.43-3.39-64.54-4.89-96.81c1.31-11.9-0.16-25.35-0.46-37.64
			c21.26-2.14,39.2-2.77,60.79-3.37l1.77,25.74c-7.09,4.17-17.48-0.52-24.57,3.65l1.06,23.05l23.59,0.18
			c-1.65,10.35,1.39,15.37-0.26,25.73l-20.37,0.61c-2.88,10.35-1.29,21.11,0.75,30.73c8.16-0.71,16.39-2.56,25.3-1.72
			c0.46,8.46,2.16,16.53,0.95,25.74C352.64,317.03,332.77,315.35,311.07,318.25z"/>
	</g>
	<g>
		<polygon points="203.94,330.06 113.23,327.36 121.18,173.67 211.89,176.35 		"/>
		<path class="st1" d="M116.86,320.05c7.35-45.64,17.3-92.13,25.76-138.01c14.69,3.92,29.65,0.71,44.91,3.11
			c1.59,42.44,9.72,91.8,11.31,134.23c1.44,0.18-0.29,0.72-11.66,5.16c-10.87,1.76-16.55,3.17-25.11-1.54
			c-1.31-3.36,3.21-20.08,2.01-24.23l-10.09-1.31c-2.23,8.46-2.48,6.51-7.51,24.91C140.35,325.55,124.14,318.61,116.86,320.05z"/>
		<path d="M163.42,223.81c-0.12,16.31,1.6,32.08-0.02,48.99l-7.66-1L163.42,223.81z"/>
	</g>
	<g>
		<polygon points="475,315.64 386.26,326.36 379.73,182.13 468.46,171.4 		"/>
		<path class="st1" d="M390.16,305.93c1.27-39.82-1.39-78.12,0.26-117.93c24.19,1.68,61.28-15.36,74.18,8.64
			c2.21,15.15,7.13,29.89-5.36,43.52l-7.47,3.04c25.08,9.27,10.3,42.49,15.83,63.72c-10.18,3.81-22.48,0.8-33.31,3.19
			c1.44-18.11,0.17-35.46-0.37-52.8c-1.7-2.5-5.15-2.08-7.71-3.47c-3.59,21.43,0.22,35.44-1.92,57.55
			c-12.21,0.61-21.51,3-32.88,2.47L390.16,305.93z"/>
		<path d="M425.37,207.19c3.45-0.42,6.08,0.25,7.8,2.39c-0.31,8.67,3.01,19.47-5.35,24.33l-1.91,0.04L425.37,207.19z"/>
	</g>
	<g>
		<polygon points="110.39,330.48 25,321.72 28.03,169.52 113.42,178.27 		"/>
		<path class="st1" d="M29.05,282.76l9.79-1.32l0.22-64.51l-10.12-2.17l0.68-34.66c30.63,4.09,66.08-5.63,78.6,21.16
			c0.54,15.45,7.7,40.61-13.1,48.57c-1.37-0.15-3.41-0.4-4.93,0.9c6.56,3.76,16.14,4.39,18.84,11.65
			c4.38,18.39,6.39,39.95-8.93,55.02c-19.52,9.13-51.87,1.34-70.98-0.4L29.05,282.76z"/>
		<path d="M68.03,258.56c4.03,0.98,9-0.43,11.35,3.82c5.05,4.55,2.08,13.63-0.49,18.79l-8.59,2.94L68.03,258.56z"/>
		<path d="M68.46,219.42c4.82,0.05,8.07,1.93,11.25,4.8c0,6.93,1.46,13.04-6.52,17.07l-3.41-0.39L68.46,219.42z"/>
	</g>
</g>
</svg>
