<?xml version="1.0" encoding="utf-8"?>
<!-- Generator: Adobe Illustrator 23.0.2, SVG Export Plug-In . SVG Version: 6.00 Build 0)  -->
<svg version="1.1" id="Layer_1" xmlns="http://www.w3.org/2000/svg" xmlns:xlink="http://www.w3.org/1999/xlink" x="0px" y="0px"
	 viewBox="0 0 500 500" style="enable-background:new 0 0 500 500;" xml:space="preserve">
<style type="text/css">
	.st0{fill:#070707;}
	.st1{fill:#FFFFFF;}
	.st2{fill-rule:evenodd;clip-rule:evenodd;}
	.st3{fill:#C12A21;}
	.st4{fill:#272425;}
	.st5{fill:#221F1E;}
	.st6{opacity:0.93;}
</style>
<g class="st6">
	<g>
		<path d="M97.65,171.51c42.08,0,51.9,41.46,46.01,78.46c-5.94,37.07-29,78.52-71.1,78.52c-42.09,0-51.92-41.45-45.98-78.52
			C32.48,212.97,55.56,171.51,97.65,171.51 M78.68,290.23c15.67,0,21.2-30.78,22.7-40.26c1.49-9.42,5.83-40.2-9.83-40.2
			c-15.66,0-21.18,30.77-22.69,40.2C67.32,259.45,63.02,290.23,78.68,290.23"/>
		<path d="M165.53,174.11h48.76c24.37,0,51.2,10.45,45.95,43.29c-2.74,17.07-16.06,30.37-33.52,30.37l-0.08,0.41
			c20.06,1.62,28.84,14.06,25.6,34.42c-3,18.69-18.32,43.28-55.3,43.28h-55.69L165.53,174.11z M191.43,293.05
			c9.14,0,17.97-4.42,19.63-14.69c1.64-10.25-5.6-14.47-15.18-14.47h-3.23l-4.67,29.16H191.43z M200.01,233.09
			c8.51,0,17-3.44,18.58-13.24c1.42-9.11-4.26-12.9-12.77-12.9h-4.09l-4.2,26.15H200.01z"/>
		<polygon points="279.29,174.11 356.33,174.11 350.63,209.96 315.05,209.96 311.68,231.09 343.61,231.09 337.87,266.9 
			305.93,266.9 302.26,290.05 337.81,290.05 332.1,325.88 255.04,325.88 		"/>
		<polygon points="373.49,325.88 383.81,261.46 359.97,174.11 403.04,174.11 409.78,221.03 410.2,221.03 432.11,174.11 475,174.11 
			425.26,261.46 414.99,325.88 		"/>
		<path d="M436.71,311.4c0-8.99,7.03-14.31,14.73-14.31c7.73,0,14.76,5.31,14.76,14.31c0,8.97-7.02,14.31-14.76,14.31
			C443.74,325.71,436.71,320.38,436.71,311.4 M451.44,299.87c-6.09,0-10.94,4.71-10.94,11.53c0,6.84,4.85,11.54,10.94,11.54
			c5.99,0,10.97-4.71,10.97-11.54C462.41,304.58,457.43,299.87,451.44,299.87 M449.02,319.25h-3.4v-15.71h5.89
			c4.11,0,6.41,1.16,6.41,4.74c0,2.9-1.65,4.01-4.32,4.18l4.1,6.8h-3.46l-3.66-6.62h-1.58V319.25z M449.02,310.01h2.96
			c1.86,0,2.55-0.88,2.55-2.07c0-1.43-1.07-1.79-2.68-1.79h-2.83V310.01z"/>
	</g>
</g>
</svg>
