<?xml version="1.0" encoding="utf-8"?>
<!-- Generator: Adobe Illustrator 23.0.2, SVG Export Plug-In . SVG Version: 6.00 Build 0)  -->
<svg version="1.1" id="Layer_1" xmlns="http://www.w3.org/2000/svg" xmlns:xlink="http://www.w3.org/1999/xlink" x="0px" y="0px"
	 viewBox="0 0 500 500" style="enable-background:new 0 0 500 500;" xml:space="preserve">
<style type="text/css">
	.st0{fill:#070707;}
	.st1{fill:#FFFFFF;}
	.st2{fill-rule:evenodd;clip-rule:evenodd;}
</style>
<g>
	<g>
		<g>
			<path d="M233.3,126.18c2.91,0,5.82-0.49,8.74-0.49c2.43,0,4.85-0.49,7.28-0.49h2.43c0.97,0,1.94-0.48,2.43-0.48
				c0.97,0.97,0,3.88,0,4.85c-0.49,3.4-0.49,6.8-1.46,10.19c-1.46,8.25-3.4,16.5-5.34,25.24c-0.97,5.34-1.94,10.19-2.91,15.53
				c-0.97,2.91-0.97,5.83-1.94,8.74c0,0.97,0,2.43-0.48,3.4c0,1.46-0.49,2.43-0.49,3.88c0,0.97-0.49,2.91,0,3.4
				c0.49,0.97,3.4,0.49,4.37,0.49c1.94,0,5.82,0.49,6.8-1.46c0.97-1.46,0.97-2.91,1.46-4.37c0.49-2.91,0.97-5.82,1.94-8.74
				c2.91-10.68,3.88-21.36,5.34-32.04c0.48-3.88,0.97-7.77,1.94-11.65c0.48-2.91,1.94-5.82,1.94-9.22c0-1.46,0-2.43,0.48-3.88
				c0-1.46-0.48-2.43,0.97-3.4c1.46-0.49,2.91,0,4.37,0h5.34c2.91-0.49,5.82-0.97,8.74-0.97c1.46,0,2.43,0.48,2.43-1.46v-6.31
				c0-0.97,0.49-1.94-0.49-2.43c-0.97-0.48-2.91,0-3.88,0h-9.71h-8.25c-2.43,0-4.37,0.49-6.31,0.49h-6.31
				c-1.94,0-3.88-0.49-5.34-0.49c-4.37,0-7.77-1.46-11.65-1.94l-5.83,1.94l-0.48-0.48c0,4.37,0.48,8.25,0.48,12.62
				C230.87,126.66,232.33,126.18,233.3,126.18"/>
			<path d="M471.6,109.67c-1.94-3.4-5.34-7.77-9.71-8.74c-2.43-0.49-4.85,0-7.28,0c-1.94-0.49-3.88-0.97-5.83-0.97
				c-3.4,0.48-6.31,1.46-9.71,1.94c-1.94,0-4.37-0.48-6.31,0.49c-3.88,0.97-2.43,4.85-2.91,7.77c-0.49,2.43-0.97,4.85-0.97,7.28
				c-0.49,2.43-0.97,4.85-0.97,7.28c0,2.43,0,4.85-0.49,7.28c-0.48,6.31-1.94,13.11-2.43,19.42c-1.46,9.22-1.94,18.45-1.94,27.67
				c0,4.37,1.94,6.31,1.94,6.31c0,1.94,3.4,1.46,4.85,1.46c2.43,0.48,4.85,0,7.28,0.48c0.48-0.97,0-2.43,0-3.4v-3.4
				c0-2.91,0-5.82,0.48-8.74c0.49-3.88,0.49-8.25,0.49-12.62c0-1.46,0.49-3.4,0.49-4.85c0-0.97-0.49-1.94,0-2.91
				c1.46,0.48,1.94,4.85,1.94,5.82c0.97,3.4,1.94,6.31,2.91,9.71c1.46,3.88,2.91,7.77,3.88,12.14c0.97,1.94,1.46,3.88,1.94,5.82
				c0,0.49,0,2.43,0.48,2.91c0.49,0.97,3.4,0.48,4.37,0.48c2.43-0.48,4.37-0.48,6.8-0.48c0.97,0,2.43,0.48,2.43-0.97
				c0-0.49-0.49-1.46-0.49-2.43c-0.48-0.97-0.48-2.43-0.97-3.88c-1.46-7.28-3.88-14.56-4.37-22.33c-0.49-2.91-1.46-5.34-2.43-8.25
				c-0.48-1.94,0.49-1.94,2.43-2.43c2.91-0.97,5.34-2.43,7.77-4.85c2.43-1.94,4.86-5.34,6.8-8.74c0.97-1.94,1.94-3.88,2.43-5.83
				c0.48-1.94,0.48-3.88,0.48-5.34C475,117.92,474.03,114.04,471.6,109.67 M450.73,137.82c-1.94,0.49-3.4,0.97-5.34,1.46
				c-0.97,0.49-1.94,0.97-2.91,1.46c-1.94,0.49-2.43-1.46-2.43-2.91c0-4.37,0.49-8.74,0.97-13.11c0.49-2.43,0.49-4.85,0.49-6.8
				c0-0.48,0-1.46,0.49-1.94v0.97l4.37-2.91c2.91,0.49,5.34,1.94,7.77,3.4c1.94,1.94,2.91,3.4,3.4,5.82
				C458.01,129.08,456.55,135.88,450.73,137.82"/>
			<path d="M93.99,210.8c1.29-0.43,3.02-0.43,4.31-0.86c1.29,0,3.01,0,4.31-0.43c1.29-0.43,2.58-1.29,3.88-1.29
				c0-1.72,0.86-3.01,0.86-4.74c0.43-1.72,0.86-3.45,0.86-5.6c0.86-3.01,1.72-6.46,1.72-9.91c0-4.31,1.29-8.61,2.15-12.49
				c0-2.15,0.86-3.88,1.72-6.03c0.43-0.86,0.86-2.15,1.29-3.44c0-0.43,0-2.58,1.29-2.15c1.72,2.58,4.31,5.6,5.17,9.04
				c0.86,2.58,1.72,5.17,2.58,7.75c2.15,5.6,3.01,11.63,5.17,17.66c0.43,1.29,0.86,3.01,1.29,4.74c0.43,1.29,0.86,1.72,2.58,1.72
				c1.72-0.43,3.88-1.29,6.03-1.29c1.29,0,3.02,0.43,3.45-1.29c0.43-0.86-0.43-1.72-0.43-2.58c0-2.15-0.43-4.31-1.29-6.46
				c-0.86-2.15-0.86-4.31-1.29-6.46c-0.43-1.72-0.86-3.88-1.29-6.03c-0.43-2.15-0.86-4.31-1.29-6.46c-0.43-0.86-0.43-2.15-0.86-3.45
				c-0.43-1.29-0.86-2.58-1.29-3.88c-0.43-0.86-0.86-2.58-0.86-3.01c0.43-0.43,0.43-0.43,0.86-0.43c1.29-0.43,2.15-0.43,3.01-0.86
				c2.15-0.86,4.31-2.15,6.46-3.88c1.29-1.29,2.58-2.15,3.88-3.45c1.29-1.29,1.72-3.01,3.02-4.31c0.86-1.29,1.29-3.01,2.15-4.31
				c0.43-1.29,1.29-2.15,1.72-3.45c0.86-2.15,0.43-4.31,0.43-6.46c0-2.58-0.43-4.74-1.29-6.89c-0.86-3.02-2.15-5.17-4.31-7.32
				c-0.86-0.86-1.72-1.72-3.02-2.15h-3.44h-9.04c-1.29,0-2.58,0-3.88,0.43h-3.45c-2.58,0.43-5.17,1.29-7.75,1.72
				c-2.15,0.86-4.74,0.86-6.89,1.72c-0.86,0-3.02,0.86-3.45,1.29c-0.43,0.43-0.86,1.72-0.86,2.58c-0.86,1.72-1.29,3.88-1.72,6.03
				c-0.43,2.58-0.86,5.17-1.29,7.75c-0.43,1.72-0.43,3.01-0.86,4.31c-0.43,1.72-0.86,3.02-1.29,4.74c-0.43,1.72-0.43,3.88-0.86,6.03
				c-0.43,2.15-0.86,4.31-1.29,6.46c-0.86,3.01-0.86,6.46-1.72,9.47l-1.29,2.58c0,0.86,0,1.72-0.43,3.01c0,0.86,0,1.72-0.43,3.02
				c-0.43,1.29-0.86,2.15-1.29,3.44c-0.86,3.45-1.29,6.89-2.15,9.91c-0.43,3.01-1.29,5.6-1.72,8.18c-0.86,2.15-1.72,5.17-1.72,7.32
				l0.86,1.29C91.41,210.8,93.56,210.8,93.99,210.8 M119.41,140.16c0.86-1.72,1.29-3.02,1.29-4.74c0-0.86,0.43-2.15,0.86-2.15v-0.86
				c1.72-2.15,5.17-2.15,7.75-1.72c2.58,0.43,4.74,1.72,6.89,3.88c2.15,2.58,3.01,6.46,2.58,9.91c-0.43,2.15-1.72,3.88-3.45,4.74
				c-0.86,0.86-2.58,2.15-3.88,3.01c-1.29,0.43-3.01,0-4.74,0.43c-1.29,0-2.58,0-4.31-0.43c-0.86,0-2.15-0.43-3.44-0.43
				c-1.72-0.43-1.29-1.72-1.29-2.58C116.82,146.19,118.11,142.75,119.41,140.16"/>
			<path d="M169.18,189.9c1.74,5.21,7.43,8.51,12.22,10.24c4.81,1.22,9.68,0.9,14.13-0.98c4.44-1.88,6.99-4.86,9.58-8.86
				c3.6-4.99,6.23-10.02,8.39-15.58c1.07-2.53,2.16-5.56,2.77-8.62c0.14-3.59,0.79-7.67,1.42-11.24c0.14-3.59-0.66-7.73-1.03-10.82
				c-0.42-1.56-0.85-3.12-1.27-4.67c-0.4-2.07-0.32-4.12-1.21-6.21c-0.4-2.07-1.8-3.67-2.2-5.74c-0.44-1.04-0.87-2.6-1.8-3.67
				c-0.91-1.58-2.28-3.69-3.7-4.77c-1.43-0.57-2.87-1.14-4.3-1.71c-1.43-0.57-2.38-1.12-3.82-1.69c-1.43-0.57-2.38-1.12-3.31-2.19
				l1.47-0.45c-1.94-0.08-3.39-0.14-4.89,0.83c-3.46,1.4-6.47,3.85-9.02,6.83c-6.57,6.42-10.8,14.97-13.1,24.13
				c-2.33,9.67-2.73,19.92-2.17,30.21C167.64,179.57,167.42,185.21,169.18,189.9 M177.38,160.95c0.05-1.32,0.53-2.63,0.59-3.95
				c0.93-1.73,1.43-3.47,1.93-5.22c2.45-8.92,5.48-21.54,15.25-24.69l0.15-0.53l-0.6-0.23c0.22,0.01,0.43,0.05,0.63,0.11l0.2-0.7
				c0.47,0.54,0.9,1.09,1.31,1.64c1.21,1.22,2,3.23,2.82,4.44c0.12,0.32,0.23,0.66,0.33,0.99c0.74,1.65,1.34,3.32,1.86,4.99
				c1.76,4.69,0.56,10.29-0.13,15.4c-0.11,0.68-0.25,1.36-0.38,2.04c-0.02,0.3-0.06,0.6-0.07,0.92c-0.09,2.2-0.61,4.39-0.69,6.59
				c-0.1,2.64-1.04,4.37-1.57,7c-0.57,3.51-1.14,7.02-3.41,10.01c-1.38,2.15-4.07,4.69-6.68,5.47c-4.8,1.58-9.86-1.28-10.96-6.17
				c-0.4-0.9-0.34-2.22-0.72-3.56c0.03-0.88,0.09-2.2,0.14-3.52c-0.36-1.78-0.7-4-0.62-6.2
				C176.82,164.02,177.31,162.71,177.38,160.95"/>
			<path d="M67.99,201.89c0.61-2.22,1.47-4.45,2.56-6.7c0.85-2.23,1.2-4.93,1.07-7.35c-0.09-1.7-0.41-3.14-0.97-4.57
				c-0.55-1.19-1.34-2.36-2.35-3.03c-1.03-1.16-2.3-2.07-3.79-2.72c-0.51-0.46-1.01-0.68-1.51-0.89c-0.5-0.22-1.73-0.64-2-1.11
				c0.46-0.51,1.67-0.57,1.91-0.59c1.2-0.31,2.38-0.86,3.33-1.39c1.43-0.56,2.84-1.36,4.26-2.17c1.89-1.07,4.03-1.92,5.93-2.74
				c2.6-1.35,5.19-2.95,7.03-4.99c1.62-1.54,2.27-3.04,2.64-5.24c0.39-1.72,0.53-3.67,0.43-5.61c-0.13-2.42-0.24-4.61-0.62-7.02
				c-0.36-2.17-0.73-4.58-1.81-6.71c-0.83-1.9-2.13-3.53-3.43-5.17c-1.29-1.39-2.82-2.77-4.33-3.66c-1.52-1.14-3.48-1.52-5.21-1.91
				c-3.71-1.26-7.13-1.56-10.79-1.86c-1.71-0.15-3.4-0.06-5.11-0.21c-1.7,0.09-3.18-0.32-4.66-0.73c-1.72-0.39-3.18-0.32-4.64-0.48
				c-0.73,0.04-1.45,0.08-2.2-0.13c-0.48,0.03-1.71-0.15-2.18,0.12l-0.24,0.01c-0.2,0.74-0.16,1.47-0.13,2.2
				c-0.19,0.98-0.38,1.97-0.57,2.95c-0.42,1.24-0.84,2.47-0.78,3.69c-0.18,1.22-0.13,2.19-0.3,3.42c-0.33,2.93-1.14,5.89-1.73,8.6
				c-0.36,2.45-1.21,4.68-2.06,6.91c-0.41,1.48-0.57,2.95-0.98,4.43c-0.42,1.24-0.36,2.45-0.79,3.44l0.04,0.73
				c-0.22,0.5-0.43,0.99-0.41,1.48c0.04,0.73,0.09,1.7,0.14,2.67c-0.52,3.91-1.3,7.6-1.82,11.52c-0.85,6.85-2.94,13.28-3.55,20.12
				c-0.01,0.14-0.01,0.3-0.02,0.44c-1.09,3.26-1.37,7.09-1.65,10.69c-0.32,1.29-0.65,2.91-0.97,4.2c0,0.65-0.32,1.29-0.32,1.94
				c0,0.32-0.65,1.29-0.32,1.62c0.28,0.85,2.31,0.71,3.24,0.66c0.2,0.24,0.58,0.11,1.09,0.09c1.21-0.06,2.42-0.13,3.63-0.19
				c3.15-0.17,6.31-0.09,9.45-0.5c2.9-0.4,6.02-1.05,8.92-1.45c3.6-0.92,6.93-2.31,10.23-4.19S66.96,205.35,67.99,201.89
				 M45.49,162.5c0.42-1.24,0.84-2.48,1.25-3.96c0.41-1.48,0.82-2.96,1.21-4.68c0.38-1.96,1.02-3.7,1.41-5.42
				c0.6-2.46,1.45-4.69,1.81-7.15c0.61-2.22,1.45-4.69,1.09-6.86l1.53,1.38c0.7-0.52,1.19-0.55,2.16-0.6
				c0.48-0.03,0.96-0.29,1.44-0.32c0.48-0.03,0.98,0.19,1.47,0.16c0.49-0.02,1.21-0.06,1.95,0.14c0.48-0.03,0.98,0.19,1.71,0.15
				c1.22,0.18,2.44,0.11,3.67,0.53c0.99,0.43,1.99,0.87,3,1.54c1.01,0.68,2.03,1.59,2.81,2.52c0.77,0.69,1.76,1.12,2.05,2.08
				c0.56,1.43,0.67,3.37,0.74,4.82c-0.2,0.74-0.14,1.95-0.34,2.69c-0.45,0.75-0.89,1.51-1.1,2.25c-0.89,1.51-1.54,3-2.68,4.52
				c-0.45,0.75-1.38,1.53-2.31,2.31c-0.93,0.78-1.86,1.56-2.81,2.09c-1.18,0.55-2.13,1.09-3.32,1.63c-1.17,0.79-2.39,0.86-3.83,1.18
				c-1.91,0.59-4.06,1.43-6.25,1.3c-1.71-0.15-3.42-0.3-4.87-0.22c-0.48,0.02-1.93,0.34-2.21-0.37
				C45.08,163.98,45.51,162.98,45.49,162.5 M58.54,193.16c-0.36,2.45-1.72,4.23-3.07,6.24c-0.88,1.75-2.23,3.76-4.12,4.84
				c-0.7,0.52-1.43,0.56-2.16,0.6c-0.97,0.05-1.93,0.35-3.12,0.65c-1.21,0.06-2.16,0.6-3.36,0.91c-0.94,0.54-1.9,0.83-2.87,0.88
				c-0.73,0.04-1.47-0.17-2.21-0.37c-0.74-0.2-0.98-0.19-1.03-1.16c0.18-1.22,0.6-2.46,0.79-3.44c0.18-1.22,0.36-2.45,0.53-3.67
				c0.15-1.71,0.55-3.43,0.94-5.15c0.59-2.7,1.43-5.18,2.01-7.88c0.35-1.28,0.53-2.37,1-3.44c-0.31,0.1-0.62,0.2-0.93,0.28
				l1.17-0.79c-0.09,0.17-0.17,0.34-0.25,0.51c0.89-0.3,1.77-0.66,2.66-0.88c1.21-0.07,1.94-0.1,3.16,0.08
				c0.98,0.19,1.95,0.14,2.95,0.57c1.48,0.41,2.96,0.82,3.98,1.73c1.26,0.91,2.31,2.31,3.1,3.48
				C58.8,189.01,59.16,191.18,58.54,193.16"/>
			<path d="M308.05,198.31c0.86-0.43,0.43-2.15,0.86-3.01c0-0.86,0.43-2.15,0.86-3.02c0.43-3.01,0.86-6.03,0.86-8.61
				c0-2.58,0.86-4.74,1.29-7.32v-2.58c0-1.29,0.43-2.15,0.43-3.45c0-2.15,0-4.31,0.43-6.46v-3.88c0-0.43,0-0.43,0.43-0.86
				c0.43-0.43,1.72,0,2.15,0h6.46c1.29,0.43,3.01,0.43,4.31,0.43c1.29,0,3.02,0,3.02,1.29c0.43,3.01-0.43,6.03-0.86,9.04
				c-0.43,2.58-0.86,5.17-1.72,7.75c0,2.15-0.43,4.31-0.86,6.46c0,1.72-0.43,3.88-0.43,5.6c0,2.58,0,4.74-0.43,6.89
				c0,1.72,1.29,1.29,2.58,1.29c1.72,0,3.45-0.43,5.6-0.86c0.86,0,1.72-0.43,2.58-0.43c0.43,0,1.29,0.43,2.15,0
				c0.43-0.43,0-2.15,0-3.02c0-1.29,0.43-2.15,0.43-3.44c0.86-2.58,1.29-4.74,1.72-7.32c0-2.15,0-4.31,0.86-6.46
				c0.43-2.58,1.29-5.17,1.72-7.75c0.43-2.15,0.86-5.17,1.29-7.75c0-2.15,0.43-4.31,0.86-6.46c0-1.72,0.86-3.88,1.29-5.6
				c0.43-3.88,0.86-7.75,1.72-11.2c0-1.72,0.86-3.88,0.86-5.6c0-1.72,0.43-3.45,0.86-4.74c0.43-2.58,1.29-5.17,1.72-7.75
				c0.43-1.72,0.43-3.45,0.86-4.74v-2.15c0.43-0.86,0.43-1.72,0.43-2.58c-0.86-0.86-3.02,0-3.88,0c-1.29,0-3.02,0.43-4.31,0.43
				h-1.72c-1.29,0-1.29,0-1.72,1.29c-0.43,1.72-0.86,3.01-1.29,4.74c-0.86,2.58-1.29,5.6-2.15,8.18c-0.86,3.01-2.15,5.6-2.58,8.61
				c0,2.15-0.43,4.74-0.86,6.89c0,1.29-0.43,2.15-0.43,3.45c0,0.86-0.43,3.88-1.72,4.74c-0.86,0.43-3.02,0-4.31,0.43
				c-1.29,0-2.58-0.43-3.88-0.43h-3.88c-1.29,0-2.58,0.86-4.31,0.43c0-1.29,0.86-2.58,0.86-3.45c0-1.29,0.43-2.58,0.43-3.88
				c0.43-2.58,0.86-5.17,0.86-8.18c0-1.29,0.43-2.15,0.43-3.45v-4.31c0.43-1.29,0.86-2.58,0.86-4.31v-3.44
				c0.43-2.15,0.86-4.31,1.29-6.03v-2.58c0.43-1.72,0.43-2.15-1.29-2.15c-3.88,0-7.32,2.58-11.2,2.58l-0.43,4.31l-0.43-0.43
				c0,0.86-0.43,1.72-0.43,2.58c-0.43,2.15-1.29,3.88-1.29,5.6c-0.43,2.15-0.86,3.88-0.86,5.6c-0.43,2.58-0.86,4.74-1.29,6.89
				c0,4.31-0.86,8.61-1.29,12.92c-0.43,2.15-0.43,3.88-0.86,6.03c-0.43,2.58-0.43,5.17-0.43,7.75c-0.86,4.31-1.29,8.61-1.72,12.92
				c0,3.01-1.29,6.03-1.72,9.04c-0.43,2.58-0.86,5.17-0.86,7.32c0,1.72-0.43,3.01-0.43,4.74c0,1.29-0.43,2.58-0.43,3.88
				c2.15,0,4.31-0.43,6.46-0.43h3.02C305.46,198.31,307.18,198.74,308.05,198.31"/>
			<path d="M392.03,192.06c2.8-0.43,5.81-1.08,8.61-1.29c0.43,0,0.65,0,0.86-0.65c0.22-0.43,0.43-1.29,0.43-1.94
				c0-1.51,0.43-2.8,0.43-4.09c0-1.29,0.22-2.37,0.43-3.66c0.22-0.86,0.65-1.72,0.65-2.58c-0.86-0.21-2.15,0-3.23,0
				c-1.29,0.22-2.37,0.86-3.88,0.65c-2.8-0.43-5.6,0-8.4,0.43c-1.51,0.21-2.8,0.43-4.31,0.43h-3.45h-1.72h-1.08
				c-0.22,0.22-0.43,0.22-0.65,0.22c-0.65-0.22-0.43-1.08-0.22-1.51c0.22-1.29,0.43-2.37,0.65-3.45c0.43-1.94,1.08-3.88,1.29-5.81
				c0.22-1.29,0.43-2.58,0.65-4.09c0.22-1.51,0.65-3.02,1.08-4.52c0-0.65,0-1.51,0.22-2.15c0.43-0.86,0.65-1.51,0.86-2.37
				c0.21-0.43,0.21-1.08,0.43-1.51c0-0.43,0-1.51,0.43-1.72c0.43-0.22,1.72,0,2.37,0h3.01c1.51-0.22,2.8-0.22,4.31-0.22
				c1.72,0,3.23,0.43,4.95,0.43h3.01h1.51h0.86c0.43-0.21,0.43-1.08,0.43-1.51c0.21-0.65,0.43-1.08,0.65-1.72
				c0.21-0.65,0.21-1.29,0.21-1.72c0.22-1.72,0.43-3.23,1.08-4.74c0-0.43,0.43-1.08,0.43-1.51c0-0.86-0.65-0.86-1.29-0.86
				c-1.29-0.22-2.58-0.43-4.09-0.65h-3.44c-1.51,0-3.02-0.22-4.52-0.43c-2.37-0.22-4.74-0.22-7.11-0.22c-0.43,0-1.08,0-1.51-0.22
				c-0.43-0.21,0-0.86,0.22-1.29c0.65-1.51,1.29-3.23,1.51-4.74c0-1.29,0.22-2.8,0.43-4.09c0.43-1.08,0.65-2.15,0.65-3.45
				c0-1.08,0.21-1.94,0.21-3.01c0-1.08-0.21-2.15,0-3.23c0.22-0.86,0.43-0.86,1.08-0.86c0.65-0.21,1.29-0.21,1.94-0.21h6.24h3.66
				c0.65,0,1.08,0.21,1.51,0.21c0.86,0.22,1.72,0.22,2.58,0.43c0.65,0,1.29,0.21,1.94,0.43c0.43,0,1.51,0.22,1.72,0
				c0.43-0.22,0.65-1.51,0.65-1.72c0.22-0.86,0.43-1.51,0.43-2.15c0.21-0.65,0.43-1.08,0.65-1.51v-1.51
				c0.21-1.08,0.43-1.94,0.43-3.02c0-0.65,0.22-1.08,0.22-1.72c0-0.43,0.21-1.08-0.22-1.51h-1.08c-0.22,0-0.65-0.21-0.86-0.21
				c-0.86,0-1.94,0.21-2.8,0.21c-0.65,0-1.29,0.22-1.94,0.22h-1.94c-1.72,0-3.44,0.22-5.38,0.43c-1.29,0.22-2.58,0.22-3.88,0.22
				c-1.29,0-2.37,0.22-3.66,0.43c-2.8,0.43-5.81,0.65-8.83,0.65c-0.86,0-1.72-0.21-2.58-0.21l-0.22,0.43
				c-0.65,1.72-0.86,3.66-1.08,5.38c-0.22,1.51-0.43,2.8-0.65,4.31c-0.22,1.72-0.22,3.66-0.65,5.6c-0.43,3.23-0.65,6.46-1.08,9.69
				c-0.43,1.94-0.65,4.09-1.08,6.03c0,0.86-0.21,1.72-0.21,2.58c-0.22,1.08-0.22,2.15-0.22,3.23c-0.22,3.23-1.08,6.24-1.94,9.26
				c-0.65,2.58-1.08,5.17-1.72,7.75c-1.08,5.6-1.94,11.2-2.8,16.58c-0.43,1.72-0.65,3.45-0.65,5.17c0,1.94-0.65,3.66-0.65,5.6
				c0,1.08-0.22,2.15-0.65,3.23c0,0.43-0.22,1.29,0.22,1.51c0.21,0,0.65-0.22,0.86-0.43c0.22,0,0.65,0,0.86-0.22
				c1.29-0.22,2.37-0.43,3.45-0.43c1.08,0,2.15-0.22,3.23-0.22c1.29,0,2.58-0.22,3.66-0.22c2.37,0.22,4.52,0.22,6.68,0.22
				C384.92,192.92,388.37,192.71,392.03,192.06"/>
			<path d="M128.45,262.26c0.65-5.81,1.29-10.98,2.58-16.8c0-1.94,0.65-4.52,1.29-6.46c0-1.94,0.65-4.52-1.29-4.52
				c-3.88,0-7.11,0.65-10.98,0.65c-1.94,0-3.88,0-5.81,0.65c-2.58,0.65-3.23,0-4.52,2.58c-1.29,3.88-2.58,8.4-3.23,12.27
				c-1.29,3.88-2.58,7.75-4.52,11.63l-5.81,13.57c-0.65,2.58-1.94,4.52-2.58,7.11c-0.65,1.94-0.65,4.52-1.94,6.46v-7.11
				c0-1.94-0.65-3.88-0.65-5.81c0-5.17-0.65-10.34-0.65-15.5v-14.21c-0.65-2.58-1.29-5.17-1.29-8.4c0-1.29,0-1.94-0.65-3.23v-3.88
				c-1.29,0-2.58,0.65-3.23,0.65c-1.29,0.65-1.94,0.65-3.23,1.29c-2.58,0.65-4.52,1.29-6.46,1.94c-1.29,0-3.88,0-4.52,1.29
				c-0.65,0.65-0.65,2.58-0.65,3.23c-0.65,1.94-1.29,2.58-1.29,4.52v1.94c-0.65,3.23-1.29,5.81-2.58,8.4
				c-0.65,1.94-0.65,4.52-1.29,6.46c-1.29,5.17-1.94,9.69-3.23,14.21c-0.65,6.46-1.94,12.27-3.23,18.09c0,2.58-0.65,5.81-0.65,8.4
				l-1.94,7.75c-1.25,7.52-2.5,15.05-2.57,22.57l0-0.01c0,0.01,0,0.01,0,0.02c0,0.22-0.01,0.45-0.01,0.68v-0.6
				c-0.19,1.04-0.28,1.98,0,2.54c1.29,0,2.58-0.65,3.88-0.65h3.88c1.94-0.65,3.88-1.29,5.81-1.29c0.65,0,1.29,0,1.94-0.65
				c0.65-0.65,0.65-2.58,0.65-3.88v-2.58c0.65-2.58,0.65-5.17,0.65-7.75c0-5.81,1.29-12.27,1.94-18.74c0.65-3.23,0-6.46,0.65-9.69
				c0-3.23-0.65-6.46,1.29-9.04c1.29,1.29,0.65,3.88,0.65,5.81c0,2.58,0.65,4.52,1.29,6.46c0.65,3.23,1.94,6.46,2.58,9.69
				c0.65,3.23,1.29,6.46,2.58,10.34c0.65,1.94,0.65,3.88,3.23,3.88h4.52c1.29,0,4.52,0.65,5.17,0c0.65-1.29,1.29-3.88,1.94-5.17
				c1.29-4.52,3.23-9.04,5.17-12.92l5.81-11.63c1.29-3.23,1.94-7.75,4.52-10.34c-0.65,1.29-0.65,2.58-0.65,4.52
				s-0.65,3.88-0.65,6.46c0,3.88-0.65,7.75-0.65,11.63c0,2.58-0.65,5.17-0.65,7.75c0,3.23-0.65,6.46-0.65,9.69
				c-0.65,2.58-0.65,4.52-0.65,6.46c0,2.58,0,3.23,2.58,3.23c3.23,0,6.46,0.65,9.69,0c2.58-0.65,2.58-1.94,2.58-3.88v-5.17
				c0-3.23,0-6.46,0.65-10.34c0.65-6.46,2.58-12.27,3.23-18.74C127.16,279.06,127.81,270.66,128.45,262.26"/>
			<path d="M52.22,332.08c0-0.03,0.01-0.05,0.01-0.07v-0.01l-0.01,0.04V332.08z"/>
			<path d="M200.81,318.47c0.43-1.29,1.29-2.58,1.72-3.88c0.43-1.29,0.86-2.58,1.29-3.88c0-0.43,0.43-1.29,0.43-1.72
				c0-0.43,0.43-1.72,0.43-2.15c-0.86-0.86-4.31-0.43-4.74-0.43c-2.58,0.43-5.17,0.43-7.32,0.43c-1.29,0-1.72,0.43-3.01,0.43h-4.31
				c-3.44,0-6.46,0.43-9.91,0.43h-3.45c-0.86,0-2.58,0.43-3.44,0c0-0.86,0.86-3.02,1.29-3.88c0.43-1.72,0.86-3.02,0.86-5.17
				c0.43-2.15,0.43-4.74,1.29-7.32c0-1.29,0-2.58,0.43-3.88c0-1.29,0-3.01,0.86-4.31c0.86-1.29,5.6-1.29,7.32-0.86
				c5.17,0.86,9.91,1.29,14.64,1.29c1.29,0,2.16,0.43,3.02-0.86c0.43-0.43,0.43-1.29,0.43-2.15c0.43-0.86,0.86-1.29,1.29-2.15
				c0.43-1.29,0.86-2.58,0.86-3.88c0.43-1.29,1.29-3.01,0.86-4.31c-0.86-0.86-3.01-0.43-4.31-0.43h-3.88
				c-2.58,0.43-5.17,0-8.18,0.43c-0.86,0.43-2.15,0.43-3.02,0.43c-1.29,0-1.72-0.43-2.58-0.86c-1.29,0-2.15,0-3.01-0.43
				c-1.29-0.43-2.58-0.43-3.45-0.86c-1.29-0.43-0.86-1.72-0.43-3.01c0-0.86,0.43-1.72,0.86-2.58c0.43-2.58,0.86-5.17,1.29-7.75
				c0.43-1.72,1.29-3.88,1.72-5.6c0.43-2.58,0.43-5.17,1.29-7.75c0-0.86,0-0.86,0.43-1.29c0.43-0.43,1.72,0,2.58,0h4.74h9.47
				c2.16,0,4.31,0,6.46,0.43c1.29,0.43,2.16,0.86,2.58-0.43c0.43-1.29,0.43-2.58,0.86-3.45c0.43-2.58,0.86-5.17,1.72-7.75
				c0.43-0.86,0.86-2.15,0-2.58c-0.43-0.43-2.15,0-2.58,0c-0.86,0-1.72,0-2.58,0.43c-2.58,0-5.17,0.86-7.32,0.86h-6.89
				c-6.03,0-11.63,0.43-17.66,0.43h-3.44c-0.43,0-3.02-0.43-3.45,0c-0.43,0.43,0,3.02-0.43,3.88c0,0.43,0,0.86-0.43,1.72v0.43
				c0,1.29-0.43,3.01-0.43,4.31c-0.43,4.31-1.29,8.18-2.15,12.49c-0.86,3.01-1.72,6.46-1.72,9.47c0,3.88-0.43,7.32-0.86,10.77
				c-0.43,6.46-2.15,12.49-3.02,18.95c-0.43,5.17,0,11.2-0.86,16.37c-0.86,4.74-1.72,9.47-2.58,14.64c0,0.86-0.43,2.58-0.43,3.88
				c0,1.29,1.29,0.86,2.58,0.86c1.29,0,2.16-0.43,3.45-0.86c1.72,0,3.01,0,4.74-0.43c4.31-1.29,8.18-2.58,12.49-2.58
				c4.31,0,8.62-0.43,12.92-0.43h9.48h1.72c0.43,0,0.86,0.43,1.29,0.43C200.38,322.35,200.38,319.33,200.81,318.47"/>
			<path d="M282.64,315.45c0.43-0.86-0.86-3.02-1.29-3.88c-1.29-3.88-2.15-8.18-3.01-12.06c-1.29-3.44-2.15-6.46-3.45-9.9
				c-1.29-3.02-2.15-6.46-3.44-9.91c-0.43-1.29-0.86-3.01-1.29-4.31c0-0.43-0.43-1.72-0.43-2.15c0.43-0.43,0.86-0.43,1.29-0.43
				c2.58-0.86,6.03-0.86,8.61-2.15c3.45-1.29,5.6-4.31,8.18-6.89c3.02-4.31,4.74-9.91,3.88-15.07c-0.43-3.45-0.86-6.89-1.72-10.34
				c-0.43-1.72-0.43-3.88-1.29-6.03c-0.86-1.72-1.72-3.44-3.01-5.6c-0.86-1.29-1.72-2.15-3.02-3.01c-1.29-0.43-2.58-1.29-3.88-1.72
				c-1.72-0.86-3.88-1.29-6.03-1.72c-2.15-0.86-3.88-1.29-6.03-1.29c-3.01,0-6.03,0-8.61,0.43c-2.15,0.43-4.31,0.86-6.46,0.86
				c-2.15,0.43-4.31,0.43-6.46,0.86c-1.29,0-2.58,0-3.88,0.43c-0.43,0.43-1.29,0.86-2.16,0.86c-0.43,0.86-0.43,1.72-0.43,2.58
				c-0.43,0.86-0.86,1.29-0.86,2.15c0,2.15-0.86,4.31-0.86,6.89c0,1.72-0.86,3.88-0.86,5.6c-0.43,2.15-0.43,4.31-0.86,6.46
				c-1.29,8.18-0.86,16.8-2.15,24.98c-0.86,4.31-1.29,8.18-2.15,12.49c0,2.15,0,4.31-0.43,6.46c0,1.72,0,3.88-0.43,5.6
				c-0.86,4.31-1.72,8.18-2.58,12.49c-0.43,2.15-0.86,4.31-1.29,6.46c0,0.72-0.29,1.44-0.39,2.15h-0.48c0,0.86-1.29,3.44-0.86,3.88
				c0.86,0.43,3.88-0.43,4.74-0.86c0.86,0,1.29-0.43,2.15-0.43h1.29c3.02-0.86,5.6,0,8.62-0.43c0.43,0,1.29-0.43,1.72-0.86
				c0.43-0.43,0.43-1.72,0.43-2.15c0.43-1.29,0.43-2.15,0.43-3.01c0.43-3.88,0.86-7.32,1.29-10.77c0.43-2.58,0.86-5.17,1.29-8.18
				c0.86-3.45,1.72-6.89,1.72-10.34c0-2.15,0.43-3.88,0.86-5.6c0-0.86-0.43-3.88,0.43-4.31c3.45,6.03,6.46,12.49,9.05,18.95
				c1.72,3.45,3.44,6.89,4.74,10.34c1.72,4.31,2.58,8.61,4.74,12.92c0.43,0.86,0.86,1.72,1.72,2.15h2.15c2.15,0,3.88-0.86,6.03-0.86
				C278.76,316.75,282.21,316.75,282.64,315.45 M267.13,256.45c-3.44,1.72-7.32,3.88-11.63,3.88c-0.86,0-4.31,0.43-5.17-0.43
				c-0.43-0.86,0.43-3.02,0.43-4.31c0.43-1.72,0.43-3.44,0.86-5.17c0.43-1.29,0.86-3.01,0.86-4.74c0-5.17,0.86-9.91,0.86-15.07
				v-0.86v-0.43c3.01-0.43,6.46-0.43,9.04,0.86c3.44,1.72,7.75,4.31,9.47,7.75c0.86,1.29,2.15,3.01,2.58,4.74
				c0.43,1.72,0.86,3.02,0.43,4.74c-0.43,2.58-0.86,4.31-2.58,6.03C270.58,255.16,268.86,255.59,267.13,256.45"/>
			<path d="M343.8,300.38c-2.58,0-5.17-0.43-7.75,0c-1.29,0-2.58,0.43-3.88,0.43c-1.29,0-2.58-0.43-3.88-0.86h-3.02
				c-1.29,0-1.72,0-1.72-1.72c0.43-3.01,1.72-6.46,2.58-9.9c0-1.72,0-3.45,0.43-5.17c0-0.86,0.43-2.15,0.43-3.02v-2.58
				c0-1.29,0.43-2.58,0.43-3.44c0-3.02,0.86-5.6,0.86-8.18v-4.74c0-1.29,0.43-2.58,0.43-3.88c0-1.72,0.43-3.45,0.43-5.6v-4.31
				c0.43-2.15,0.43-4.74,0.86-6.89c0.86-2.58,0.86-5.17,1.29-8.18c0.86-2.58,1.29-5.17,1.72-7.75c0-1.72,0.86-3.01,1.29-4.31
				c0-0.86,0.43-2.58,0-3.45c-0.86-0.86-6.03,1.29-7.32,1.29c-1.29,0.43-2.58,1.29-4.31,1.29h-1.72v-0.86
				c-0.43,0.86-0.43,1.72-0.43,2.58c-0.43,1.29-0.43,3.01-0.86,4.74c-0.86,3.88-1.72,7.32-2.58,11.2
				c-1.72,6.89-1.72,13.78-3.01,20.67c-0.43,2.58-0.43,5.6-1.29,8.61c-0.43,2.58-0.43,5.6-1.29,8.61
				c-0.86,4.74-1.29,10.34-3.02,15.07c-0.86,4.74-1.29,9.47-2.58,14.21c-0.43,2.15-0.86,4.31-0.86,6.46c0,1.29-0.43,2.15-0.43,3.45
				c0,1.72,0,2.58,2.15,2.58h6.89c2.15,0,4.31-0.43,6.03-0.43c2.15,0,4.31-0.86,6.03-0.86c3.01,0,5.6-0.43,8.61-1.29
				c5.6-0.86,11.2-0.43,16.8-1.72c1.29,0,2.58,0.43,3.45,0c1.29-0.43,1.72-3.88,2.15-4.74c0.43-1.29,0.43-3.02,0.86-4.31
				c0.43-0.86,0.43-1.29,0.43-2.15c0-0.43,0.43-1.29,0.43-1.72c-0.86-0.43-2.58-0.43-3.45-0.43c-1.29,0-2.58,0.43-3.88,0.43
				C348.97,299.95,346.38,300.38,343.8,300.38"/>
			<path d="M429.07,211.23c-1.72,0-3.45,0.43-4.74,0.43c-2.15,0-3.88,0.43-5.6,0.43c-2.58,0-4.74,0-6.89,0.43
				c-4.31,0.43-8.61,0-12.92,0c-3.01,0-6.46,0.86-9.47,1.72c0,0,0-0.43,0.43-0.43h-0.43c0,1.29-0.43,2.15-0.86,3.01
				c-0.86,2.58-1.72,4.74-2.15,7.32c-0.86,3.01-1.29,6.03-1.72,8.61c-0.43,3.01-1.29,6.03-2.15,9.04
				c-0.86,6.46-1.29,12.92-2.15,19.38c-0.43,3.44-1.29,7.75-1.29,11.2c-0.43,6.46-0.43,12.92-1.72,19.38
				c-0.43,3.02-0.43,5.6-0.86,8.18c-0.43,2.15-0.86,4.31-0.86,6.46v1.72c0,0.86-0.43,1.72-0.43,2.15c1.29,0.43,3.01-0.86,3.88-0.86
				h3.45c2.58,0,5.6-0.86,8.18-1.29c3.01-0.43,5.6-1.29,8.18-1.29h3.45c1.29,0,2.58-0.43,3.45-0.86c1.72,0,3.01,0,4.31-0.43
				c0.43,0,1.29-0.43,1.72-0.43c0.43,0,1.29,0.43,1.72,0.43c0.86,0,2.15-0.43,3.01-0.43c0.86,0.43,2.15,0.43,3.01,0.43
				c1.29,0,2.15-0.43,3.45-0.43c0.86,0,2.15,0,2.58-0.86c0.43-1.29,0.86-2.58,0.86-3.88c0.43-1.72,0.86-3.45,1.29-4.74
				c0.43-0.86,0.86-2.15,0.86-3.44s-1.72-0.86-2.58-0.86c-3.01,0-5.6,0-8.61,0.43c-4.74,0.43-9.91,0.43-14.64,0.43
				c-2.15,0-4.31-0.43-6.46,0.43c-0.86,0-2.15,0.43-3.01,0c-0.86-0.43-0.43-2.58-0.43-3.45c0.43-5.6,1.29-11.2,2.58-16.8
				c0.43-1.29,0.43-2.58,0.86-3.88c0.43-1.72,2.15-1.72,3.45-1.72c3.88,0,7.75-0.43,11.63,0h6.03c1.72,0,4.31,0.43,5.6-0.43
				c0.86-0.43,0.86-2.15,1.29-2.58c0.43-1.29,0.43-2.15,0.86-3.02c0.43-1.72,0.86-3.44,1.29-5.17c-0.43-0.43-2.15,0-3.02,0h-3.44
				c-2.58,0.43-5.17,0.86-7.75,1.29h-6.89c-1.29,0-2.15-0.43-3.44-0.43h-3.45c-1.72,0-1.29-0.43-0.86-2.15
				c0.43-0.86,0.43-2.15,0.86-3.44c0-2.15,0.43-3.88,0.86-6.03c0.86-4.74,1.72-9.47,3.01-14.21c0-0.86,0-1.72,0.43-2.58
				c0-0.86,0.43-2.15,0.43-3.01c0-2.15,0-4.31,2.15-4.74c3.45-1.29,8.18-1.29,12.06-0.86c3.88,0.43,7.75,0.43,11.63,0.43
				c0.86,0,1.72,0.43,2.15-0.43c0.86-0.86,0.86-2.15,1.29-3.01c0-0.86,0.43-1.72,0.86-2.58c0.43-0.86,0.43-2.15,0.86-3.01
				C432.95,209.94,430.37,211.23,429.07,211.23"/>
			<path d="M154.88,389.34c0.11-0.96-0.13-1.64-0.02-2.6c0.07-0.64,0.15-1.28,0.23-1.93c-0.13-1.64-0.3-2.96-0.11-4.57
				c-0.03-5.21-0.47-9.81-0.54-14.7c-0.06-2.28-0.11-4.57-0.17-6.85c-0.13-1.64-0.55-3.64-0.36-5.25l0.04-0.32
				c-0.64-0.08-1.36,0.49-1.72,0.77c-0.68,0.25-1,0.21-1.68,0.45c-1,0.21-2,0.41-2.96,0.3c-1,0.21-1.68,0.45-2.64,0.34
				c-0.64-0.07-0.96-0.11-1.64,0.13c-0.68,0.24-1.64,0.13-2,0.41c-0.36,0.28-0.47,1.24-0.51,1.57c-0.91,2.17-1.53,4.7-2.44,6.87
				c-0.55,1.89-1.42,3.74-1.96,5.62c-0.91,2.17-1.85,4.66-2.76,6.83c-0.95,2.49-1.21,4.74-2.16,7.23c-0.62,2.53-1.57,5.02-2.55,7.83
				c-0.15,1.28-0.91,2.17-1.38,3.41c-0.11,0.96-0.91,2.17-1.06,3.45l0.45,1.68c0.64,0.07,1-0.21,1.64-0.13
				c0.96,0.11,1.96-0.09,3-0.62c0.68-0.25,2-0.41,3.04-0.94c0.68-0.25,0.44-0.93,0.55-1.89c0.23-1.92,1.45-4.06,1.68-5.98
				c0.11-0.96,0.55-1.89,0.66-2.85c0.11-0.96,0.34-2.89,1.1-3.77c0.4-0.6,0.36-0.28,1.32-0.17c0.32,0.04,1-0.21,1.64-0.13
				c0.96,0.11,1.64-0.13,2.6-0.02c0.64,0.08,3.57,0.1,3.85,0.45c0.25,0.68-0.26,2.25-0.34,2.89c-0.26,2.25-0.21,4.53-0.47,6.77
				c-0.11,0.96,0.09,1.96-0.02,2.93c-0.11,0.96-0.26,2.25-0.02,2.93c1.28,0.15,3-0.62,4.32-0.79c0.32,0.04,0.96,0.11,1.6,0.19
				c0.68-0.25,1.6,0.19,2.28-0.06l-0.39-4.93C154.54,392.23,154.69,390.94,154.88,389.34 M149.4,366.9
				c-0.19,1.6-0.38,3.21-0.53,4.49c-0.11,0.96,0.06,2.28-0.38,3.21c-0.43,0.92-0.87,1.85-0.98,2.81c-2.48-0.29-5.21-0.91-7.52-0.32
				c-0.1,0.12-0.18,0.26-0.3,0.38l0.24-0.37c-0.07,0.02-0.14,0.02-0.2,0.04l0.36-0.28l-0.16,0.24c0.02-0.01,0.04-0.01,0.06-0.01
				c0.9-1.12,1.41-2.51,2.16-3.89c0.47-1.25,1.3-2.77,1.78-4.02c0.07-0.64,0.44-0.93,0.51-1.57c0.08-0.64,0.15-1.28,0.55-1.89
				c0.32,0.04,0.64,0.07,0.96,0.11c0.64,0.07,1.32-0.17,1.96-0.09C149.19,365.9,149.51,365.94,149.4,366.9"/>
			<path d="M192.15,353.79c-0.91-1.65-2.48-3-4.39-3.71c-1.27-0.69-2.87-1.07-4.49-1.13c-0.97-0.03-2.27,0.24-3.25,0.53
				c-0.66,0.3-1.3,0.28-2.28,0.56c-0.66,0.3-1.65,0.91-2.62,0.88c-0.65-0.02-1.63,0.26-2.27,0.24c-1.63,0.27-2.03,2.51-2.41,4.12
				c-0.75,2.88-1.19,6.1-1.95,9.3c-0.4,2.25-0.47,4.18-0.55,6.44c-0.39,1.93-0.8,4.17-0.88,6.43c-0.44,3.22-0.89,6.76-1.32,9.97
				c-0.43,2.89-0.51,5.15-1.24,7.71l1.26,1.01c0.96,0.36,1.6,0.38,2.58,0.09c0.98-0.29,1.64-0.59,2.28-0.57
				c0.65,0.02,1.6,0.38,2.26,0.08c0.36-0.96,0.07-1.94,0.1-2.9c0.03-0.97,0.07-1.94,0.1-2.91c0.06-1.61,0.11-3.23,0.17-4.84
				c0.39-1.93,0.78-3.85,0.85-5.79c0.03-0.97,0.07-1.94,0.1-2.91c0.03-0.97-0.23-2.59,0.44-3.22c0.3,0.66,0.91,1.65,1.21,2.31
				c0.61,0.99,0.9,1.97,1.19,2.95c0.59,1.64,1.51,2.96,2.1,4.6c0.58,1.96,1.49,3.61,2.39,5.58c0.29,0.98,0.89,2.29,1.49,3.61
				c0.3,0.66,0.25,1.95,1.21,2.31c0.31,0.33,1.61,0.06,2.26,0.08c0.97,0.03,1.63-0.26,2.59-0.23c0.65,0.02,1.94,0.07,1.65-0.91
				c0.02-0.65-0.59-1.64-0.56-2.28c-1.49-3.61-2.31-7.84-3.14-11.75c-0.26-1.63-0.54-2.93-0.82-4.23c-0.3-0.66-0.89-2.29-0.54-2.93
				c0.32,0.01,0.97,0.03,1.29,0.05c0.32,0.01,0.66-0.3,0.98-0.29c0.98-0.29,1.65-0.91,2.31-1.21c3.32-2.47,3.79-6.65,3.93-10.53
				c0.05-1.29-0.23-2.59-0.51-3.9C193.7,355.47,192.77,354.46,192.15,353.79 M185.1,360.98c-0.08,2.26-1.14,4.81-3.45,6.02
				c-1.97,0.9-4.25,1.46-6.5,1.06c0.39-1.93,0.14-3.87,0.21-5.81c0.05-1.51,0.12-3.29,0.17-4.84l-0.94-1
				c0.97,0.03,1.63-0.26,2.27-0.24c1.29,0.05,2.58,0.09,3.54,0.45c1.28,0.37,2.56,0.74,3.51,1.42
				C185.18,358.72,185.15,359.69,185.1,360.98"/>
			<path d="M226.24,345.39c-0.43,0-0.86,0.22-1.29,0.22c-0.43,0.21-1.08,0.21-1.51,0.21c-0.65,0.22-1.08,0.43-1.72,0.65
				c-0.43,0-1.08,0-1.72,0.22c-1.29,0.22-2.58,0.22-4.09,0.22c-2.58,0-5.17,0.86-7.75,1.08c-1.29,0-2.58,0-3.88,0.22
				c-0.65,0-1.29,0.21-1.94,0.43h-0.86c-0.43,0-0.86,0.22-1.08,0.22h-0.22l-0.43,0.43c0,1.08-0.43,1.94-0.86,3.01
				c0,0.65,0.22,1.72-0.22,1.94h0.65c0.86-0.21,1.72-0.21,2.58-0.21c1.51,0,2.8-0.22,4.09-0.22c0.86,0,1.72,0,2.58-0.22
				c0.65,0,1.08-0.21,1.51-0.43c1.08-0.22,0.65,1.08,0.43,1.72c-0.43,1.94-0.65,3.88-1.08,5.81c-0.43,2.58-1.08,4.95-1.51,7.32
				c-0.43,2.8-0.86,5.81-1.29,8.61c-0.22,1.08-0.65,2.37-0.65,3.66c0,1.08,0,2.37-0.43,3.45c-0.22,1.51-0.22,2.8-0.65,4.31
				c-0.22,1.29-0.65,2.58-0.86,4.09c0,0.65,0.22,0.65,0.86,0.65c0.65-0.22,1.08-0.43,1.72-0.43c0.65-0.21,1.51-0.43,2.15-0.43
				c0.43,0,1.51,0.22,1.72,0c0.43-0.22,0.43-1.94,0.43-2.37c0.22-1.08,0.43-2.37,0.43-3.45c0.21-2.15,0.65-4.31,0.86-6.46
				c0.22-1.51,0.43-3.01,0.65-4.31c0-1.72,0.65-3.02,0.86-4.52c0.43-1.72,0.65-3.23,0.86-4.74c0.43-1.29,0.86-2.58,1.08-3.66
				c0.43-2.37,0.65-4.74,1.29-7.11c0.22-0.43,0.43-1.08,0.65-1.51c0.22-0.65,1.08-0.43,1.72-0.65c0.65,0,1.29-0.22,1.94-0.22
				c0.65,0,1.29-0.21,2.15-0.21c0.65,0,1.08,0,1.72-0.22c0.43-0.22,0.43-0.22,0.86-0.22h0.65v-0.86c0-0.22,0.22-0.43,0.22-0.65
				c0.21-0.65,0.43-1.29,0.43-1.72c0-0.65,0.22-1.08,0.22-1.51c0-0.43,0.43-1.08,0.43-1.72S226.89,345.39,226.24,345.39"/>
			<path d="M271.24,344.1c-0.43-0.22-1.29-0.22-1.72-0.22c-0.43-0.21-0.86-0.21-1.29-0.21h-1.94c-0.65,0-0.86,0-1.29,0.65
				c-1.08,1.72-1.94,3.66-2.58,5.6c-1.08,3.01-1.72,6.03-2.58,9.26c-0.86,2.58-1.94,4.95-3.02,7.32c-0.43,1.29-0.65,2.37-1.08,3.66
				c-0.22,0.43-0.43,0.86-0.65,1.29c-0.22,0.43-0.22,1.08-0.65,1.51c-0.65-1.51,0-3.66-0.22-5.38c-0.21-0.86-0.21-1.94-0.21-2.8
				c-0.22-1.08-0.43-1.94-0.65-3.01c-0.22-1.51,0-3.02,0-4.52c0-0.86-0.22-1.51-0.22-2.15c0-0.43,0.22-0.65-0.22-0.86
				c-0.43-0.21-1.08,0-1.51,0h-2.37c-0.65,0-1.29-0.21-1.72,0.43c-0.43,0.43-0.65,1.08-0.86,1.72c-0.21,0.65-0.65,1.08-0.86,1.72
				c-0.43,1.29-1.08,2.37-1.72,3.45c-0.86,1.72-1.94,3.45-2.58,5.17c-0.43,0.86-1.08,1.72-1.29,2.58c-0.43,0.65-0.65,1.29-1.08,2.15
				c0-1.08,0.22-2.37,0.22-3.23c0.21-1.51,0.43-3.02,0.86-4.52c0.43-1.51,0.65-3.23,1.08-4.74c0.43-1.29,0.43-2.58,0.86-3.66
				c0.22-1.94,0.65-3.88,1.08-5.81c0-0.65,0.21-1.08,0.21-1.72v-1.29c0.22-0.86,0.43-1.72,0.43-2.58c-0.65-0.43-2.37,0.65-3.23,0.86
				h-1.29c-0.43,0-0.65,0.22-1.08,0.22v-0.22l-1.08-0.43c0,0.43-0.22,1.08-0.22,1.51c0,0.86,0,1.72-0.21,2.58
				c-0.65,2.8-1.08,5.38-1.51,8.18c-0.43,2.8-0.65,5.6-1.08,8.4c-0.43,2.8-0.65,5.38-0.86,7.97c-0.22,2.15-0.43,4.09-0.65,6.25
				c-0.22,1.51-0.22,3.01-0.22,4.74c-0.21,1.29-0.21,2.58-0.43,3.88c0,0.43-0.22,1.08-0.43,1.51c0,0.86-0.43,1.29,0.65,1.29
				c0.65,0,1.29-0.22,2.15-0.43h1.51c0.65,0,1.29-0.43,1.94-0.65h1.08c0.22-0.22,0.65-0.22,0.86-0.22c0.43-0.22,0.22-1.08,0.43-1.51
				c0.22-0.86,0.43-1.51,0.65-2.37c0.65-1.94,1.29-4.09,2.15-6.03c0.43-1.51,1.29-2.8,1.72-4.31c0.43-1.51,0.86-2.8,1.29-4.31
				c0.43-1.08,0.86-2.15,1.29-3.45c0-0.43,0.22-0.86,0.43-1.29c0.21-0.65,0.21-1.72,0.65-1.94c0.21,0.65,0.21,1.29,0.21,1.94
				c0,0.86,0.22,1.94,0.22,2.8c0.22,1.94,0.43,4.09,0.65,6.03c0.43,3.23,0.86,6.68,1.51,9.91c0,0.65,0.21,1.08,0.21,1.72
				c0,0.43,0.22,0.65,0.22,1.08c0,0-0.22,0.65,0,0.86c0.22,0.22,1.29-0.21,1.72-0.21c0.65-0.22,1.29-0.22,2.15-0.22
				c1.29,0,2.58-0.65,4.09-0.65c0.21,0,0.65,0.22,0.86,0c0.22-0.22,0.22-0.86,0.22-1.08c0-1.29,0.22-2.37,0.43-3.66
				c1.08-4.09,2.37-7.97,3.88-12.06c0.43-1.51,0.65-3.45,1.29-4.95c0.65-1.72,0.86-3.23,1.29-4.95c0.86-3.23,1.29-6.46,2.37-9.69
				c0.22-1.29,0.65-2.37,1.08-3.44c0.22-0.65,0.22-1.08,0.43-1.72C271.24,345.17,271.89,344.53,271.24,344.1"/>
			<path d="M335.63,341.3c-0.65-1.08-1.72-1.72-2.8-2.37c-0.65-0.43-1.51-1.08-2.37-1.29c-0.65-0.22-1.51-0.22-2.37-0.22
				c-2.37,0-4.31,0.86-6.46,1.08c-1.29,0.21-2.58,0.43-3.66,0.65c-0.86,0.43-1.94,0.86-2.8,0.86c0,0.43-0.43,0.86-0.43,1.29
				c-0.21,0.43-0.21,0.65-0.21,1.29c0,0.43-0.21,0.86-0.43,1.29c-0.21,0.43-0.21,1.08-0.21,1.51c-0.65,3.01-1.94,6.03-2.37,9.04
				c-0.43,1.29-0.86,2.58-1.07,3.88c-0.22,1.08-0.43,2.15-0.65,3.23c-0.43,2.15-1.51,4.09-1.72,6.46
				c-0.65,3.23-1.29,6.68-1.94,10.12c-0.39,1.54-0.77,3.08-1.16,4.63c-0.33,0.4-0.35,0.79-0.35,1.19c-0.22,0.43-0.65,1.29-0.43,1.72
				c0.86,0,1.94,0,2.8-0.22c1.08-0.22,2.16-0.22,3.23-0.65c0.65-0.22,1.29-0.43,1.94-0.65c0.65,0,0.86,0,1.08-0.65
				c0.21-0.65,0.21-1.51,0.43-2.37c0.43-2.37,1.51-4.74,1.94-7.11c0.21-1.94,0.65-3.66,1.07-5.6c0.22-1.08,0.22-2.58,0.65-3.44
				c0.22,0.21,0.43,0.86,0.43,1.29c0.21,0.43,0.21,0.86,0.21,1.29c0.22,0.86,0.43,1.51,0.65,2.37c0.43,2.37,0.86,4.74,1.51,6.89
				c0.43,1.51,0.65,2.8,0.86,4.09c0.21,0.86,0.43,1.51,0.43,2.37c0.21,0.22,0.21,0.86,0.65,1.08c0.21,0,1.07-0.22,1.51-0.22
				c0.21,0,0.65-0.22,1.08-0.22c0.86-0.43,1.72-0.65,2.58-0.86c0.65-0.22,1.29-0.43,1.72-0.43c0.65-0.21,0.65-0.43,0.43-1.08
				c-0.21-0.65-0.43-1.51-0.65-2.37c-0.21-1.29-0.65-2.8-0.86-4.31c-0.65-2.15-0.86-4.31-1.29-6.67c-0.22-0.86-0.43-1.94-0.65-2.8
				c-0.22-0.86-0.65-1.94-0.43-2.8c0.43-0.21,0.86,0,1.29-0.21c0.43,0,0.86-0.22,1.29-0.43c0.65-0.21,1.51-0.86,2.15-1.51
				c1.72-1.08,2.58-3.02,3.66-4.74c1.94-3.01,3.44-7.32,3.02-11.2C336.71,343.45,336.28,342.37,335.63,341.3 M329.17,350.13
				c-0.65,2.58-2.8,4.52-5.39,5.38c-0.86,0.43-1.94,0.65-3.01,1.08c-0.43,0.21-0.86,0.43-1.51,0.43c-0.43,0.22-1.07,0.43-1.51,0.43
				c0-0.43,0.21-1.08,0.43-1.51c0-0.43,0-0.86,0.21-1.51c0-0.86,0.21-1.72,0.43-2.8c0.21-1.29,0.43-2.8,0.86-4.09
				c0.2-0.8,0.39-1.78,0.42-2.6l-0.42-0.63c0.21,0,0.43-0.22,0.65-0.43h0.65c0.43-0.21,0.86-0.21,1.08-0.21
				c1.07-0.43,2.58-0.43,3.88-0.22c1.29,0.43,2.58,0.86,3.01,2.37C329.6,347.11,329.39,348.84,329.17,350.13"/>
			<path d="M299.88,351.2c0-0.65-0.21-1.08-0.43-1.72c-0.86-2.8-3.02-6.25-6.46-6.68c-1.94-0.22-3.66,0.86-5.6,0.86v-0.22
				c-0.86-0.43-1.08-0.22-1.51,0.43c-1.29,1.51-2.37,3.02-3.45,4.74c-2.58,3.23-4.31,6.89-5.17,10.77
				c-1.07,3.66-1.72,7.32-1.72,11.2c0,1.51,0,3.23,0.21,4.74c0.21,1.51,0.43,2.8,0.86,4.31c0.22,1.08,0.86,2.15,1.29,3.01
				c0.65,1.29,1.72,2.8,2.8,3.45c1.08,0.86,2.37,0.86,3.66,0.86c1.51,0,2.8,0.21,4.09-0.22c3.23-1.29,6.24-3.23,7.54-6.46
				c0.43-0.65,0.65-1.29,0.86-1.94c0.21-0.86,0.86-1.51,1.08-2.37c0.65-2.37,1.08-4.74,1.29-7.11c0.65-3.45,1.29-6.89,1.29-10.34
				c0-1.72,0.22-3.66,0-5.38C300.53,352.5,300.1,351.85,299.88,351.2 M294.5,358.36v2.58c-0.16,2.1-0.32,4.04-0.81,6.14
				c-0.16,0.48-0.16,0.97-0.16,1.45c-0.16,0.81-0.32,1.45-0.48,2.1c-0.32,1.45-0.65,2.75-1.45,4.04c-0.48,0.97-1.29,1.94-2.1,2.75
				c-0.65,0.81-1.29,1.62-2.1,2.42s-2.26,0.65-3.23,0c-0.81-0.48-1.13-1.45-1.29-2.26c-0.16-0.65-0.32-1.13-0.32-1.78
				c0-0.65-0.16-1.13-0.16-1.62c-0.16-0.97-0.16-1.94-0.16-2.91v-2.58v-1.29c0-0.48,0.16-0.81,0.16-1.13c0-1.78,0.16-3.39,0.65-5.17
				c0.32-0.97,0.48-2.1,0.81-3.07c0.48-1.29,1.29-2.42,1.78-3.55c0.32-0.97,0.81-1.94,1.45-2.75c0.48-0.65,0.97-0.97,1.62-1.13
				c0.65-0.32,1.94-0.65,2.42,0l-0.32,0.16c0.48-0.16,0.97-0.48,1.45-0.16c0.48,0.32,1.13,0.81,1.45,1.29
				c0.32,0.48,0.48,1.29,0.65,1.94c0,0.32,0.16,0.81,0.16,1.13c0,0.65,0.16,1.29,0.16,1.78C294.67,357.4,294.5,357.88,294.5,358.36
				 M294.29,352.5c-0.12-0.35-0.24-0.71-0.36-1.06c0.26,0.37,0.46,0.74,0.57,1.06c0.08,0.3,0.14,0.62,0.2,0.94
				C294.55,353.12,294.39,352.81,294.29,352.5"/>
			<path d="M367.83,338.18h-2.58c-1.29-0.32-1.29,0-2.26,0.97c-0.65,0.97-1.29,2.26-1.94,3.23c-1.29,1.94-2.91,3.23-3.88,5.17
				c-0.32,0.97-0.97,1.62-1.62,2.26c-0.32,0.65-0.97,1.94-1.94,2.26c0-0.32,0.65-1.29,0.65-1.94c0.32-0.65,0.65-1.62,0.97-2.26
				c0.32-1.62,0.65-2.91,0.97-4.2l0.97-3.88c0.32-0.65,0.32-1.29,0.65-1.94c0-0.65,0.65-1.29,0.65-1.94c-0.65,0-1.29,0.65-1.94,0.97
				c-0.97,0-1.62,0-2.26,0.32c-0.97,0.32-1.94,0.32-2.91,0.32l-1.29-0.65c0,2.58-0.32,4.85-0.97,7.43
				c-0.97,3.55-1.62,7.43-2.58,10.98c-0.97,3.88-1.62,8.08-2.58,11.63c-0.65,1.62-0.97,2.91-1.29,4.2c0,1.62-0.65,2.91-0.97,4.2
				l-0.97,3.88c0,0.97-0.97,2.58,0.65,2.26c0.65,0,1.29-0.65,1.94-0.65h1.62h1.29c0.65-0.32,0.65-1.94,0.97-2.26
				c0.65-2.58,1.62-4.85,2.58-7.11c0.32-1.29,0.97-2.58,1.29-3.55c0.32-0.65,0.32-1.29,0.65-2.26c0-0.32,0.32-1.29,0.32-1.62
				c0.97,0.32,1.29,1.94,1.62,2.91c0.65,0.65,0.97,1.62,1.29,2.58c0.32,0.97,0.32,1.94,0.65,2.58c0.32,0.97,0.65,1.94,1.29,2.91
				l0.97,2.91c0.32,0.32,0.32,0.97,0.65,1.29c0,0.32,0.32,0.97,0.32,1.29c0.65,0.65,1.62,0.32,2.26,0c0.97,0,1.62-0.32,2.58-0.32
				c0.65,0,1.62,0.32,2.26,0c0.32-0.65-0.65-2.26-0.65-2.58c-0.97-1.62-1.62-3.23-2.58-5.17c-0.65-1.62-1.94-3.55-2.58-5.17
				c-0.32-0.97-0.65-1.62-0.97-2.26c-0.32-1.29-0.97-2.26-1.29-3.23c-0.32-0.97-0.97-1.62-1.29-2.58c-0.32-0.97,0-1.29,0.97-2.26
				c1.62-1.94,3.23-4.2,4.85-6.46c1.94-1.94,3.55-4.52,4.85-6.78c0.65-0.65,3.88-4.52,3.23-5.17
				C369.77,337.85,368.15,338.18,367.83,338.18"/>
		</g>
	</g>
</g>
</svg>
