<?xml version="1.0" encoding="utf-8"?>
<!-- Generator: Adobe Illustrator 25.4.1, SVG Export Plug-In . SVG Version: 6.00 Build 0)  -->
<svg version="1.1" id="Calque_1" xmlns="http://www.w3.org/2000/svg" xmlns:xlink="http://www.w3.org/1999/xlink" x="0px" y="0px"
	 viewBox="0 0 500 500" style="enable-background:new 0 0 500 500;" xml:space="preserve">
<style type="text/css">
	.st0{stroke:#000000;stroke-width:4;stroke-linecap:round;stroke-linejoin:round;stroke-miterlimit:10;}
	.st1{fill:#070707;}
	.st2{fill:#FFFFFF;}
</style>
<g>
	<g>
		<path class="st1" d="M43.9,319.5h-6.8l-1.3-14.6h6.8L43.9,319.5z M456.1,319.5h6.8l1.3-14.6h-6.8L456.1,319.5z M31.8,304.9H25
			l1.3,14.6h6.8L31.8,304.9z M466.9,319.5h6.8l1.3-14.6h-6.8L466.9,319.5z M78.4,323c0,5.2-3.7,9.6-9.3,9.6c-5.5,0-9.3-4.5-9.3-9.7
			v-0.1c0-5.2,3.7-9.6,9.2-9.6c5.6,0,9.4,4.5,9.4,9.7V323 M49.5,323c0,10.3,8.3,18.5,19.5,18.5c11.2,0,19.7-8.3,19.7-18.6v-0.1
			c0-10.3-8.3-18.5-19.5-18.5c-11.2,0-19.7,8.3-19.7,18.6V323 M95,340.8H105V328h17.2v-8.2H105v-6.1h19V305H95V340.8z M129.9,340.8
			H140V328h17.2v-8.2H140v-6.1h19V305h-29.1V340.8z M187.4,340.8h10.1v-27.1h10.9V305h-31.9v8.7h10.9V340.8z M215,340.8h10.1v-13.6
			h12.9v13.6h10.1V305h-10.1v13.4h-12.9V305H215V340.8z M255,340.8h29.5v-8.4H265v-5.7h17.5v-7.8H265v-5.4h19.3V305H255V340.8z
			 M312.2,341.1h8.8l7.3-20.6l7.3,20.6h8.8l12.2-36h-10.5l-6.3,20.7l-7-20.8h-8.7l-7,20.8l-6.3-20.7h-10.7L312.2,341.1z
			 M368.4,326.7l4.1-10.2l4.1,10.2H368.4z M352.2,340.8h10.6l2.6-6.4h14l2.7,6.4h10.8l-15.5-36h-9.7L352.2,340.8z M397.7,340.8h27.7
			v-8.7h-17.6V305h-10.1V340.8z M431.1,340.8h27.7v-8.7h-17.6V305h-10.1V340.8z"/>
	</g>
	<path class="st1" d="M415.1,215h-19.6c-1.9-4.8-4-8.6-15-8.6c-7.6,0-10.8,3.1-10.8,6.3c0,3.4,2.7,6.3,11,8.2l17.7,4.7
		c11.6,3.1,17.2,12.3,17.2,22c0,5.4-1.2,11.9-6.3,17.3c-3.8,4-9.6,9.3-28.9,9.3c-26.5,0-35.2-16.7-35.2-26.8H366
		c2,7.4,7.1,10.2,17.1,10.2c7,0,12.9-2.5,12.9-7.8c0-5.1-4.3-7-9.9-8.5l-14-3.8c-6.7-2.1-12.4-3.7-16.4-7.1
		c-10.4-8.8-9.7-24.8,1.7-33.1c6.3-4.6,12.7-7,22.9-7c12,0,18.9,3.4,24.3,7.1C409.4,200.8,415.1,208.7,415.1,215 M84.8,158.5
		c0.2,0.7,40.9,114.8,40.9,114.8H150l37.5-94.9h232.8l1.8-19.9H169.6l-31.1,78.7l-28-78.7H84.8 M286.1,232.2l30.4,41h19v-81.2h-21.9
		v44.1L286,192.1h-21v81.2h21.1V232.2z M422.9,269c0-2.4-1.9-4.3-4.3-4.3c-2.4,0-4.3,2-4.3,4.3c0,2.4,1.9,4.3,4.3,4.3
		C421,273.4,422.9,271.4,422.9,269z M422.4,269c0,2.1-1.6,3.8-3.8,3.8c-2.2,0-3.8-1.7-3.8-3.8c0-2.1,1.6-3.8,3.8-3.8
		C420.8,265.2,422.4,266.9,422.4,269z M420.6,268.1c0-1-0.7-1.5-1.8-1.5h-2v4.6h1v-1.5h0.8l1,1.5h1.2l-1.1-1.6
		C420.2,269.3,420.6,268.9,420.6,268.1z M419.6,268.2c0,0.4-0.3,0.7-0.8,0.7h-1v-1.3h1C419.3,267.5,419.6,267.7,419.6,268.2z
		 M170.1,273.2h23.3l4.4-12.7h30.9l4.5,12.7h23l-29.4-81.2H202L170.1,273.2z M204.3,245.9l9-27l8.9,27H204.3z"/>
</g>
</svg>
