<?xml version="1.0" encoding="utf-8"?>
<!-- Generator: Adobe Illustrator 23.0.2, SVG Export Plug-In . SVG Version: 6.00 Build 0)  -->
<svg version="1.1" id="Layer_1" xmlns="http://www.w3.org/2000/svg" xmlns:xlink="http://www.w3.org/1999/xlink" x="0px" y="0px"
	 viewBox="0 0 500 500" style="enable-background:new 0 0 500 500;" xml:space="preserve">
<style type="text/css">
	.st0{fill:#070707;}
	.st1{fill:#FFFFFF;}
	.st2{fill-rule:evenodd;clip-rule:evenodd;}
	.st3{fill:#C12A21;}
	.st4{fill:#272425;}
	.st5{fill:#221F1E;}
	.st6{opacity:0.93;}
</style>
<g>
	<path class="st0" d="M246.65,348.79C162.47,347,94.78,278.21,94.78,193.6c0-84.61,67.69-153.41,151.87-155.2V348.79z"/>
	<path class="st0" d="M322.59,117.66c0,38.87-30.73,70.7-69.17,72.47V45.18C291.86,46.96,322.59,78.79,322.59,117.66"/>
	<path class="st0" d="M253.42,201.76l103.96,103.96c-27.12,25.98-63.65,42.21-103.96,43.07V201.76z"/>
	<path class="st0" d="M258.21,196.98h147.01c-0.86,40.31-17.08,76.83-43.06,103.96L258.21,196.98z"/>
	<path class="st0" d="M329.36,117.66c0-42.6-33.76-77.47-75.94-79.25V38.4c83.04,1.78,150.02,68.77,151.8,151.81H282.09
		C309.9,177.87,329.36,149.99,329.36,117.66"/>
	<path class="st0" d="M254.35,29.31c0,2.38-1.93,4.31-4.31,4.31c-2.38,0-4.32-1.93-4.32-4.31c0-2.39,1.93-4.31,4.32-4.31
		C252.42,25,254.35,26.93,254.35,29.31"/>
	<path class="st0" d="M254.35,357.88c0,2.38-1.93,4.31-4.31,4.31c-2.38,0-4.32-1.93-4.32-4.31c0-2.38,1.93-4.31,4.32-4.31
		C252.42,353.56,254.35,355.49,254.35,357.88"/>
	<path class="st4" d="M202.36,475c-23.73,0-43.03-19.3-43.03-43.03c0-23.73,19.3-43.03,43.03-43.03c23.73,0,43.03,19.3,43.03,43.03
		C245.39,455.7,226.09,475,202.36,475 M202.36,395.12c-20.32,0-36.85,16.53-36.85,36.85c0,20.32,16.53,36.85,36.85,36.85
		c20.32,0,36.85-16.53,36.85-36.85C239.21,411.65,222.68,395.12,202.36,395.12"/>
	<path class="st4" d="M295.27,435.06h-39.94c-1.71,0-3.09-1.39-3.09-3.09v-39.94c0-1.71,1.38-3.09,3.09-3.09
		c1.71,0,3.09,1.38,3.09,3.09v36.85h36.85c1.71,0,3.09,1.38,3.09,3.09C298.37,433.68,296.98,435.06,295.27,435.06"/>
	<path class="st4" d="M308.69,475c-1.71,0-3.09-1.38-3.09-3.09v-39.94c0-1.25,0.75-2.38,1.91-2.86c1.16-0.48,2.48-0.21,3.37,0.67
		l28.24,28.24c1.21,1.21,1.21,3.17,0,4.37c-1.21,1.21-3.16,1.21-4.37,0l-22.96-22.96v32.48C311.78,473.62,310.4,475,308.69,475"/>
	<path class="st4" d="M130.1,475c-1.71,0-3.09-1.38-3.09-3.09v-79.88c0-1.71,1.38-3.09,3.09-3.09c12.72,0,23.06,10.34,23.06,23.06
		c0,11.67-8.71,21.34-19.97,22.86v37.05C133.2,473.62,131.81,475,130.1,475 M133.2,395.41v33.19c7.83-1.46,13.78-8.34,13.78-16.59
		C146.98,403.75,141.03,396.86,133.2,395.41"/>
	<path class="st4" d="M349.63,475c-1.71,0-3.09-1.38-3.09-3.09v-39.92v-0.05v-39.91c0-1.71,1.38-3.09,3.09-3.09
		c12.72,0,23.06,10.34,23.06,23.06c0,10.45-6.99,19.3-16.54,22.12l23.9,23.9c1.21,1.21,1.21,3.17,0,4.37
		c-1.21,1.21-3.16,1.21-4.37,0l-22.96-22.96v32.48C352.72,473.62,351.33,475,349.63,475 M352.72,395.41v33.19
		c7.83-1.46,13.78-8.34,13.78-16.59C366.5,403.75,360.55,396.86,352.72,395.41"/>
</g>
</svg>
