<?xml version="1.0" encoding="utf-8"?>
<!-- Generator: Adobe Illustrator 23.0.2, SVG Export Plug-In . SVG Version: 6.00 Build 0)  -->
<svg version="1.1" id="Layer_1" xmlns="http://www.w3.org/2000/svg" xmlns:xlink="http://www.w3.org/1999/xlink" x="0px" y="0px"
	 viewBox="0 0 500 500" style="enable-background:new 0 0 500 500;" xml:space="preserve">
<style type="text/css">
	.st0{fill:#070707;}
	.st1{fill:#FFFFFF;}
	.st2{fill-rule:evenodd;clip-rule:evenodd;}
	.st3{fill:#C12A21;}
	.st4{fill:#272425;}
	.st5{fill:#221F1E;}
	.st6{opacity:0.93;}
</style>
<g>
	<path d="M135.96,196.19c0,10.82,0,47.8,0,47.8h26.72l42.62-105.27l-25.62-0.04l-17.61,42.93v-42.88h-28.26L91.05,243.99l25.56,0.18
		C116.61,244.17,131.78,206.45,135.96,196.19z"/>
	<polygon points="201.19,243.99 243.87,138.71 217.7,138.73 175.05,244.05 	"/>
	<path d="M405.25,216.88l-59.42,15.99l3.54-9.18l-30.93,0.03l9.66-25.04c0.17,0,0.17,0,25.04,0.01l7.52-18.71L335.84,180
		c0.09-0.27,9.46-22.69,9.46-22.69c0.12,0,0.12,0,25.1,0l7.55-18.66h-51.39l-41.72,102.96l-5.89-51.72l47.06-51.24h-28.15
		l-28.11,29.57l12.13-29.57l-25.97,0.03L213.2,243.95l26.03-0.03l16.6-42.19c0,0.17,0.26,3.15,4.18,42.04l23.91,0.15h20.66
		c-0.17,0.03-3.22,0.81-39.49,10.3c-44.45,11.58-76.57,19.95-97.4,24.75c-47.47,11.13-60.61,11.59-73.96,2.64
		c-10.46-6.95-15.07-18.86-14.26-36.28c0.38-7.82,2.54-15.2,4.4-20.8c1.19-3.53,3.24-8.7,5.19-12.66c0.54-1.25,1.63-3.19,1.63-3.19
		s-4.7,4.37-8.68,8.57c-2.32,2.54-3.25,3.39-9.68,10.65c-7.07,7.99-14.91,16.96-23.11,28.16c-11.05,15.12-20.67,30.62-23.59,49.96
		c-1.55,10.23-0.1,23.69,3.44,30.68c18.67,36.82,56.8,28.99,129.97-1.15C199.74,318.77,475,196.34,475,196.34L405.25,216.88z"/>
	<path d="M346.2,313.25c-1.45-3.27-6.88-7.01-8.56-8.31l-10.71-7.56c-3.8-3.25-3.86-3.45-1.54-9.27c1.89-4.66,4.9-6.88,9.87-6.88
		c6.64,0,5.4,3.09,3.71,7.28l-2.44,6.24h19.93l3.71-9.31c5.69-14.3-5.6-19.44-18.08-19.44c-11.78,0-18.31,1.65-23.12,4.63
		c-7.83,4.83-11.32,12.58-13.81,18.9c-3.28,8.21-4.29,13.39,3.34,19.37c0,0,3.98,2.77,13.55,9.17c4.38,2.6,4.32,4.86,2,10.66
		c-3.02,7.52-3.95,9.87-11.55,9.87c-7.55,0-6.09-3.67-4.06-8.73l3.86-9.71h-20.08l-5.34,13.3c-5.31,13.35,1.57,20.44,19.9,20.44
		c13.49,0,20.83-1.6,27.36-7.92c5.05-4.9,7.31-10.46,10.33-18.11C347.16,321.16,347.89,316.91,346.2,313.25z"/>
	<path d="M418.31,270.44c-2.9-1.93-7.11-2.38-14.1-2.38h-27.27l-33.45,83.85h31.48c6.96,0,12.36-0.57,17.18-2.8
		c8.73-4.09,10.56-9.89,13.55-16.28l2.93-7.36c3.37-8.43,4.24-13.16-2.93-15.51c8.79-1.84,11.03-6.15,14.39-14.6l2.73-8.24
		C425.06,280.44,424.77,274.75,418.31,270.44z M389.64,324.87l-1.83,4.55c-2.7,6.83-4.93,7.6-12.27,7.6h-6.5
		c0.15-0.33,7.81-19.56,7.81-19.56h6.79C391.09,317.47,392.07,318.72,389.64,324.87z M403.27,290.77l-1.74,4.31
		c-2.47,6.15-6.18,6.95-12.59,6.95h-5.98l7.6-18.86h4.53C402.49,283.17,406,283.64,403.27,290.77z"/>
</g>
</svg>
