<?xml version="1.0" encoding="utf-8"?>
<!-- Generator: Adobe Illustrator 25.4.1, SVG Export Plug-In . SVG Version: 6.00 Build 0)  -->
<svg version="1.1" id="Calque_1" xmlns="http://www.w3.org/2000/svg" xmlns:xlink="http://www.w3.org/1999/xlink" x="0px" y="0px"
	 viewBox="0 0 500 500" style="enable-background:new 0 0 500 500;" xml:space="preserve">
<style type="text/css">
	.st0{fill-rule:evenodd;clip-rule:evenodd;}
</style>
<g>
	<g>
		<path class="st0" d="M335.4,43.1c-3.1-0.1-3.4-3.1-7.3-2.4c-29.8,36.7-134.1,10.8-183.7,19.5c-1.2,50-21.6,81-19.6,134.2
			c-1.5,8.3-15.7,3.9-14.7,14.6c1,87.8-46.7,180.9-12.2,244c17.3-22.6,44.3-35.5,63.7-56.1c-2.5-15.4-5.5-30.3-22-31.7
			c0.3-58.7,7.7-161,83.3-129.3c12.4-14.4,22.7-31.1,22-58.6c-15.5-15.1-44.1,2-61.2-2.4c0.6-14.8,7.2-23.7,4.9-41.5
			c32.5-14.7,91.2-13.9,124.9-19.5C324,93.5,333.9,72.5,335.4,43.1z"/>
	</g>
	<path class="st0" d="M270.6,169.2c-19.1,20.1-11.1,21.3-19.2,51c-3.5,12.9-14.3,22.2-16,31.9c-4.4,24.5,3.3,55.8,0,82.9
		c-4.9,40.5-31.4,85.5,0,108.5c26.5-40,21.6-126.8,89.6-114.8c25.6,39.6-29.1,122.3,28.8,130.8c37.6-101.7,61-215.1,60.8-344.5
		C347.6,106.2,299.7,138.6,270.6,169.2z M334.6,264.9c-15.5,0.6-27.3-2.5-38.4-6.4c8.8-26.3,2.2-68,35.2-70.2
		C339.2,208.3,344.9,245.7,334.6,264.9z"/>
</g>
</svg>
